<svg width="25" height="25" viewBox="0 0 25 25" fill="none" xmlns="http://www.w3.org/2000/svg">
<circle cx="12.5" cy="12.5" r="12.5" fill="#4BA950"/>
<path d="M10.067 15.262C10.771 14.6753 11.332 14.1877 11.75 13.799C12.168 13.403 12.5163 12.9923 12.795 12.567C13.0737 12.1417 13.213 11.7237 13.213 11.313C13.213 10.939 13.125 10.6457 12.949 10.433C12.773 10.2203 12.5017 10.114 12.135 10.114C11.7683 10.114 11.486 10.2387 11.288 10.488C11.09 10.73 10.9873 11.0637 10.98 11.489H9.484C9.51333 10.609 9.77367 9.94167 10.265 9.487C10.7637 9.03233 11.3943 8.805 12.157 8.805C12.993 8.805 13.6347 9.02867 14.082 9.476C14.5293 9.916 14.753 10.499 14.753 11.225C14.753 11.797 14.599 12.3433 14.291 12.864C13.983 13.3847 13.631 13.8393 13.235 14.228C12.839 14.6093 12.322 15.0713 11.684 15.614H14.929V16.89H9.495V15.746L10.067 15.262Z" fill="white"/>
</svg>
