<svg width="25" height="25" viewBox="0 0 25 25" fill="none" xmlns="http://www.w3.org/2000/svg">
<circle cx="12.5" cy="12.5" r="12.5" fill="#4BA950"/>
<path d="M9.605 11.093C9.64167 10.3597 9.89833 9.795 10.375 9.399C10.859 8.99567 11.4933 8.794 12.278 8.794C12.8133 8.794 13.2717 8.88933 13.653 9.08C14.0343 9.26333 14.3203 9.51633 14.511 9.839C14.709 10.1543 14.808 10.5137 14.808 10.917C14.808 11.379 14.687 11.7713 14.445 12.094C14.2103 12.4093 13.928 12.622 13.598 12.732V12.776C14.0233 12.908 14.3533 13.1427 14.588 13.48C14.83 13.8173 14.951 14.25 14.951 14.778C14.951 15.218 14.8483 15.6103 14.643 15.955C14.445 16.2997 14.148 16.571 13.752 16.769C13.3633 16.9597 12.894 17.055 12.344 17.055C11.5153 17.055 10.8407 16.846 10.32 16.428C9.79933 16.01 9.52433 15.394 9.495 14.58H10.991C11.0057 14.9393 11.1267 15.229 11.354 15.449C11.5887 15.6617 11.9077 15.768 12.311 15.768C12.685 15.768 12.971 15.6653 13.169 15.46C13.3743 15.2473 13.477 14.976 13.477 14.646C13.477 14.206 13.3377 13.8907 13.059 13.7C12.7803 13.5093 12.3477 13.414 11.761 13.414H11.442V12.149H11.761C12.8023 12.149 13.323 11.8007 13.323 11.104C13.323 10.7887 13.2277 10.543 13.037 10.367C12.8537 10.191 12.586 10.103 12.234 10.103C11.8893 10.103 11.6217 10.1983 11.431 10.389C11.2477 10.5723 11.1413 10.807 11.112 11.093H9.605Z" fill="white"/>
</svg>
