<svg width="27" height="27" viewBox="0 0 27 27" fill="none" xmlns="http://www.w3.org/2000/svg">
<path d="M6.75 0C5.82187 0 5.0625 0.759375 5.0625 1.6875V25.3125C5.0625 26.2406 5.82187 27 6.75 27H23.625C24.5531 27 25.3125 26.2406 25.3125 25.3125V6.75L18.5625 0H6.75Z" fill="#E2E5E7"/>
<path d="M20.25 6.75H25.3125L18.5625 0V5.0625C18.5625 5.99063 19.3219 6.75 20.25 6.75Z" fill="#B0B7BD"/>
<path d="M25.3125 11.8125L20.25 6.75H25.3125V11.8125Z" fill="#CAD1D8"/>
<path d="M21.9766 21.9961C21.9766 22.4602 21.5969 22.8398 21.1328 22.8398H2.57031C2.10625 22.8398 1.72656 22.4602 1.72656 21.9961V13.5586C1.72656 13.0945 2.10625 12.7148 2.57031 12.7148H21.1328C21.5969 12.7148 21.9766 13.0945 21.9766 13.5586V21.9961Z" fill="#3FA0E7"/>
<path d="M6.878 15.812C7.318 15.812 7.704 15.898 8.036 16.07C8.372 16.242 8.63 16.488 8.81 16.808C8.994 17.124 9.086 17.492 9.086 17.912C9.086 18.332 8.994 18.7 8.81 19.016C8.63 19.328 8.372 19.57 8.036 19.742C7.704 19.914 7.318 20 6.878 20H5.414V15.812H6.878ZM6.848 19.286C7.288 19.286 7.628 19.166 7.868 18.926C8.108 18.686 8.228 18.348 8.228 17.912C8.228 17.476 8.108 17.136 7.868 16.892C7.628 16.644 7.288 16.52 6.848 16.52H6.254V19.286H6.848ZM11.6588 20.042C11.2668 20.042 10.9068 19.95 10.5788 19.766C10.2508 19.582 9.99078 19.328 9.79878 19.004C9.60678 18.676 9.51078 18.306 9.51078 17.894C9.51078 17.486 9.60678 17.12 9.79878 16.796C9.99078 16.468 10.2508 16.212 10.5788 16.028C10.9068 15.844 11.2668 15.752 11.6588 15.752C12.0548 15.752 12.4148 15.844 12.7388 16.028C13.0668 16.212 13.3248 16.468 13.5128 16.796C13.7048 17.12 13.8008 17.486 13.8008 17.894C13.8008 18.306 13.7048 18.676 13.5128 19.004C13.3248 19.328 13.0668 19.582 12.7388 19.766C12.4108 19.95 12.0508 20.042 11.6588 20.042ZM11.6588 19.292C11.9108 19.292 12.1328 19.236 12.3248 19.124C12.5168 19.008 12.6668 18.844 12.7748 18.632C12.8828 18.42 12.9368 18.174 12.9368 17.894C12.9368 17.614 12.8828 17.37 12.7748 17.162C12.6668 16.95 12.5168 16.788 12.3248 16.676C12.1328 16.564 11.9108 16.508 11.6588 16.508C11.4068 16.508 11.1828 16.564 10.9868 16.676C10.7948 16.788 10.6448 16.95 10.5368 17.162C10.4288 17.37 10.3748 17.614 10.3748 17.894C10.3748 18.174 10.4288 18.42 10.5368 18.632C10.6448 18.844 10.7948 19.008 10.9868 19.124C11.1828 19.236 11.4068 19.292 11.6588 19.292ZM14.2217 17.9C14.2217 17.488 14.3137 17.12 14.4977 16.796C14.6857 16.468 14.9397 16.214 15.2597 16.034C15.5837 15.85 15.9457 15.758 16.3457 15.758C16.8137 15.758 17.2237 15.878 17.5757 16.118C17.9277 16.358 18.1737 16.69 18.3137 17.114H17.3477C17.2517 16.914 17.1157 16.764 16.9397 16.664C16.7677 16.564 16.5677 16.514 16.3397 16.514C16.0957 16.514 15.8777 16.572 15.6857 16.688C15.4977 16.8 15.3497 16.96 15.2417 17.168C15.1377 17.376 15.0857 17.62 15.0857 17.9C15.0857 18.176 15.1377 18.42 15.2417 18.632C15.3497 18.84 15.4977 19.002 15.6857 19.118C15.8777 19.23 16.0957 19.286 16.3397 19.286C16.5677 19.286 16.7677 19.236 16.9397 19.136C17.1157 19.032 17.2517 18.88 17.3477 18.68H18.3137C18.1737 19.108 17.9277 19.442 17.5757 19.682C17.2277 19.918 16.8177 20.036 16.3457 20.036C15.9457 20.036 15.5837 19.946 15.2597 19.766C14.9397 19.582 14.6857 19.328 14.4977 19.004C14.3137 18.68 14.2217 18.312 14.2217 17.9Z" fill="white"/>
<path d="M21.0938 22.7812H5.0625V23.625H21.0938C21.5578 23.625 21.9375 23.2453 21.9375 22.7812V21.9375C21.9375 22.4016 21.5578 22.7812 21.0938 22.7812Z" fill="#CAD1D8"/>
</svg>
