<svg width="15" height="15" viewBox="0 0 10 10" fill="none" xmlns="http://www.w3.org/2000/svg">
<g clip-path="url(#clip0_3722_309)">
<path d="M7.14285 1.78516H1.07143C0.479694 1.78516 0 2.26485 0 2.85658V8.928C0 9.51973 0.479694 9.99943 1.07143 9.99943H7.14285C7.73458 9.99943 8.21427 9.51973 8.21427 8.928V2.85658C8.21427 2.26485 7.73458 1.78516 7.14285 1.78516Z" fill="#4BA950"/>
<path d="M8.92968 6.91829e-10H2.50112C1.91258 -2.09256e-05 1.43421 0.474693 1.42969 1.0632C1.42969 1.06607 1.42969 1.06856 1.42969 1.07143H7.14397C8.12971 1.0726 8.92851 1.8714 8.92968 2.85713V8.57142C8.93255 8.57142 8.93504 8.57142 8.9379 8.57142C9.52644 8.5669 10.0011 8.08853 10.0011 7.49999V1.07143C10.0011 0.479694 9.52141 6.91829e-10 8.92968 6.91829e-10Z" fill="#4BA950"/>
</g>
<defs>
<clipPath id="clip0_3722_309">
<rect width="10" height="10" fill="white"/>
</clipPath>
</defs>
</svg>
