<svg width="33" height="15" viewBox="0 0 33 15" fill="none" xmlns="http://www.w3.org/2000/svg">
<rect width="33" height="15" rx="2" fill="#4F5355"/>
<path d="M6.296 7.208C6.296 6.664 6.42133 6.176 6.672 5.744C6.928 5.312 7.272 4.976 7.704 4.736C8.14133 4.49067 8.61867 4.368 9.136 4.368C9.728 4.368 10.2533 4.51467 10.712 4.808C11.176 5.096 11.512 5.50667 11.72 6.04H10.624C10.48 5.74667 10.28 5.528 10.024 5.384C9.768 5.24 9.472 5.168 9.136 5.168C8.768 5.168 8.44 5.25067 8.152 5.416C7.864 5.58133 7.63733 5.81867 7.472 6.128C7.312 6.43733 7.232 6.79733 7.232 7.208C7.232 7.61867 7.312 7.97867 7.472 8.288C7.63733 8.59733 7.864 8.83733 8.152 9.008C8.44 9.17333 8.768 9.256 9.136 9.256C9.472 9.256 9.768 9.184 10.024 9.04C10.28 8.896 10.48 8.67733 10.624 8.384H11.72C11.512 8.91733 11.176 9.328 10.712 9.616C10.2533 9.904 9.728 10.048 9.136 10.048C8.61333 10.048 8.136 9.928 7.704 9.688C7.272 9.44267 6.928 9.104 6.672 8.672C6.42133 8.24 6.296 7.752 6.296 7.208ZM14.6995 10.072C14.2835 10.072 13.9075 9.97867 13.5715 9.792C13.2355 9.6 12.9715 9.33333 12.7795 8.992C12.5875 8.64533 12.4915 8.24533 12.4915 7.792C12.4915 7.344 12.5902 6.94667 12.7875 6.6C12.9848 6.25333 13.2542 5.98667 13.5955 5.8C13.9368 5.61333 14.3182 5.52 14.7395 5.52C15.1608 5.52 15.5422 5.61333 15.8835 5.8C16.2248 5.98667 16.4942 6.25333 16.6915 6.6C16.8888 6.94667 16.9875 7.344 16.9875 7.792C16.9875 8.24 16.8862 8.63733 16.6835 8.984C16.4808 9.33067 16.2035 9.6 15.8515 9.792C15.5048 9.97867 15.1208 10.072 14.6995 10.072ZM14.6995 9.28C14.9342 9.28 15.1528 9.224 15.3555 9.112C15.5635 9 15.7315 8.832 15.8595 8.608C15.9875 8.384 16.0515 8.112 16.0515 7.792C16.0515 7.472 15.9902 7.20267 15.8675 6.984C15.7448 6.76 15.5822 6.592 15.3795 6.48C15.1768 6.368 14.9582 6.312 14.7235 6.312C14.4888 6.312 14.2702 6.368 14.0675 6.48C13.8702 6.592 13.7128 6.76 13.5955 6.984C13.4782 7.20267 13.4195 7.472 13.4195 7.792C13.4195 8.26667 13.5395 8.63467 13.7795 8.896C14.0248 9.152 14.3315 9.28 14.6995 9.28ZM18.8011 6.24C18.9557 6.03733 19.1664 5.86667 19.4331 5.728C19.6997 5.58933 20.0011 5.52 20.3371 5.52C20.7211 5.52 21.0704 5.616 21.3851 5.808C21.7051 5.99467 21.9557 6.25867 22.1371 6.6C22.3184 6.94133 22.4091 7.33333 22.4091 7.776C22.4091 8.21867 22.3184 8.616 22.1371 8.968C21.9557 9.31467 21.7051 9.58667 21.3851 9.784C21.0704 9.976 20.7211 10.072 20.3371 10.072C20.0011 10.072 19.7024 10.0053 19.4411 9.872C19.1797 9.73333 18.9664 9.56267 18.8011 9.36V12.096H17.8891V5.592H18.8011V6.24ZM21.4811 7.776C21.4811 7.472 21.4171 7.21067 21.2891 6.992C21.1664 6.768 21.0011 6.6 20.7931 6.488C20.5904 6.37067 20.3717 6.312 20.1371 6.312C19.9077 6.312 19.6891 6.37067 19.4811 6.488C19.2784 6.60533 19.1131 6.776 18.9851 7C18.8624 7.224 18.8011 7.488 18.8011 7.792C18.8011 8.096 18.8624 8.36267 18.9851 8.592C19.1131 8.816 19.2784 8.98667 19.4811 9.104C19.6891 9.22133 19.9077 9.28 20.1371 9.28C20.3717 9.28 20.5904 9.22133 20.7931 9.104C21.0011 8.98133 21.1664 8.80533 21.2891 8.576C21.4171 8.34667 21.4811 8.08 21.4811 7.776ZM27.2789 5.592L24.5749 12.072H23.6309L24.5269 9.928L22.7909 5.592H23.8069L25.0469 8.952L26.3349 5.592H27.2789Z" fill="white"/>
</svg>
