<svg width="126" height="152" viewBox="0 0 126 152" fill="none" xmlns="http://www.w3.org/2000/svg">
<path d="M116.825 17.207H112.381V126.398C112.381 133.651 106.476 139.556 99.2224 139.556H54.1904H18.3809V143.604C18.3809 148.239 22.1428 152.001 26.7777 152.001H71.7936H116.81C121.444 152.001 125.206 148.239 125.206 143.604V25.6039C125.206 20.9689 121.46 17.207 116.825 17.207Z" fill="#44B0FF"/>
<path d="M54.1903 134.793H99.2062C103.841 134.793 107.603 131.032 107.603 126.397V17.2064V8.39683C107.603 3.7619 103.841 0 99.2062 0H54.1903H39.2221V2.77778C39.2537 3.06349 39.2697 3.36508 39.2697 3.66667V21.9683V26.6667C39.2697 33.1905 33.9681 38.4921 27.4443 38.4921H22.7459H4.44425C4.20616 38.4921 3.95219 38.4762 3.71409 38.4603H0.793457V126.397C0.793457 131.032 4.55537 134.793 9.19029 134.793H18.3966H54.1903ZM55.8887 106.254H26.5395C24.349 106.254 22.5713 104.476 22.5713 102.286C22.5713 100.095 24.349 98.3175 26.5395 98.3175H55.9046C58.0951 98.3175 59.8729 100.095 59.8729 102.286C59.8729 104.476 58.0792 106.254 55.8887 106.254ZM85.2538 86.0002H26.5395C24.349 86.0002 22.5713 84.2222 22.5713 82.0319C22.5713 79.8413 24.349 78.0637 26.5395 78.0637H85.2538C87.4443 78.0637 89.2221 79.8413 89.2221 82.0319C89.2221 84.2222 87.4443 86.0002 85.2538 86.0002ZM26.5395 56.5556H85.2538C87.4443 56.5556 89.2221 58.3333 89.2221 60.5238C89.2221 62.7143 87.4443 64.4921 85.2538 64.4921H26.5395C24.349 64.4921 22.5713 62.7143 22.5713 60.5238C22.5713 58.3333 24.349 56.5556 26.5395 56.5556Z" fill="#44B0FF"/>
<path d="M4.44426 33.7321H27.4443C27.4601 33.7321 27.4919 33.7321 27.5078 33.7321C31.349 33.7003 34.4602 30.5892 34.4919 26.748C34.4919 26.7321 34.4919 26.7003 34.4919 26.6845V3.66859C34.4919 1.54161 32.7459 0.128906 30.9365 0.128906C30.0635 0.128906 29.1905 0.446367 28.4603 1.17653L1.93632 27.7003C-0.285906 29.9226 1.28552 33.7321 4.44426 33.7321Z" fill="#44B0FF"/>
</svg>
