<svg width="15" height="15" viewBox="0 0 10 10" fill="none" xmlns="http://www.w3.org/2000/svg">
<path d="M3.36968 0.909091C3.36968 0.610987 3.60233 0.39312 3.90043 0.39312H6.08227C6.38028 0.39312 6.61293 0.610987 6.61293 0.909091V1.4742H7.00605V0.909091C7.00605 0.394272 6.59709 0 6.08227 0H3.90043C3.38561 0 2.97656 0.394272 2.97656 0.909091V1.4742H3.36968V0.909091Z" fill="#4BA950"/>
<path d="M2.66722 10.0002H7.31585C7.76406 10.0002 8.11188 9.60592 8.11188 9.11567V3.04688H1.87109V9.11567C1.87109 9.60592 2.21891 10.0002 2.66722 10.0002ZM6.24456 3.98543C6.24456 3.87688 6.33257 3.78887 6.44112 3.78887C6.54967 3.78887 6.63768 3.87688 6.63768 3.98543V8.62917C6.63768 8.73772 6.54967 8.82573 6.44112 8.82573C6.33257 8.82573 6.24456 8.73772 6.24456 8.62917V3.98543ZM4.79493 3.98543C4.79493 3.87688 4.88294 3.78887 4.99149 3.78887C5.10004 3.78887 5.18805 3.87688 5.18805 3.98543V8.62917C5.18805 8.73772 5.10004 8.82573 4.99149 8.82573C4.88294 8.82573 4.79493 8.73772 4.79493 8.62917V3.98543ZM3.34529 3.98543C3.34529 3.87688 3.43331 3.78887 3.54185 3.78887C3.6504 3.78887 3.73842 3.87688 3.73842 3.98543V8.62917C3.73842 8.73772 3.6504 8.82573 3.54185 8.82573C3.43331 8.82573 3.34529 8.73772 3.34529 8.62917V3.98543Z" fill="#4BA950"/>
<path d="M1.67109 2.65272H8.31478C8.58621 2.65272 8.80618 2.43274 8.80618 2.16132C8.80618 1.8899 8.58621 1.66992 8.31478 1.66992H1.67109C1.39967 1.66992 1.17969 1.8899 1.17969 2.16132C1.17969 2.43274 1.39967 2.65272 1.67109 2.65272Z" fill="#4BA950"/>
</svg>
