<svg width="40" height="15" viewBox="0 0 40 15" fill="none" xmlns="http://www.w3.org/2000/svg">
<rect width="40" height="15" rx="2" fill="#4F5355"/>
<path d="M9.416 4.44C10.008 4.44 10.5253 4.55467 10.968 4.784C11.416 5.008 11.76 5.33333 12 5.76C12.2453 6.18133 12.368 6.67467 12.368 7.24C12.368 7.80533 12.2453 8.296 12 8.712C11.76 9.128 11.416 9.448 10.968 9.672C10.5253 9.89067 10.008 10 9.416 10H7.6V4.44H9.416ZM9.416 9.256C10.0667 9.256 10.5653 9.08 10.912 8.728C11.2587 8.376 11.432 7.88 11.432 7.24C11.432 6.59467 11.2587 6.09067 10.912 5.728C10.5653 5.36533 10.0667 5.184 9.416 5.184H8.512V9.256H9.416ZM17.3119 7.688C17.3119 7.85333 17.3012 8.00267 17.2799 8.136H13.9119C13.9385 8.488 14.0692 8.77067 14.3039 8.984C14.5385 9.19733 14.8265 9.304 15.1679 9.304C15.6585 9.304 16.0052 9.09867 16.2079 8.688H17.1919C17.0585 9.09333 16.8159 9.42667 16.4639 9.688C16.1172 9.944 15.6852 10.072 15.1679 10.072C14.7465 10.072 14.3679 9.97867 14.0319 9.792C13.7012 9.6 13.4399 9.33333 13.2479 8.992C13.0612 8.64533 12.9679 8.24533 12.9679 7.792C12.9679 7.33867 13.0585 6.94133 13.2399 6.6C13.4265 6.25333 13.6852 5.98667 14.0159 5.8C14.3519 5.61333 14.7359 5.52 15.1679 5.52C15.5839 5.52 15.9545 5.61067 16.2799 5.792C16.6052 5.97333 16.8585 6.22933 17.0399 6.56C17.2212 6.88533 17.3119 7.26133 17.3119 7.688ZM16.3599 7.4C16.3545 7.064 16.2345 6.79467 15.9999 6.592C15.7652 6.38933 15.4745 6.288 15.1279 6.288C14.8132 6.288 14.5439 6.38933 14.3199 6.592C14.0959 6.78933 13.9625 7.05867 13.9199 7.4H16.3599ZM19.1214 4.08V10H18.2094V4.08H19.1214ZM24.3588 7.688C24.3588 7.85333 24.3481 8.00267 24.3268 8.136H20.9588C20.9854 8.488 21.1161 8.77067 21.3508 8.984C21.5854 9.19733 21.8734 9.304 22.2148 9.304C22.7054 9.304 23.0521 9.09867 23.2548 8.688H24.2387C24.1054 9.09333 23.8628 9.42667 23.5108 9.688C23.1641 9.944 22.7321 10.072 22.2148 10.072C21.7934 10.072 21.4148 9.97867 21.0788 9.792C20.7481 9.6 20.4868 9.33333 20.2948 8.992C20.1081 8.64533 20.0148 8.24533 20.0148 7.792C20.0148 7.33867 20.1054 6.94133 20.2868 6.6C20.4734 6.25333 20.7321 5.98667 21.0628 5.8C21.3988 5.61333 21.7828 5.52 22.2148 5.52C22.6308 5.52 23.0014 5.61067 23.3268 5.792C23.6521 5.97333 23.9054 6.22933 24.0868 6.56C24.2681 6.88533 24.3588 7.26133 24.3588 7.688ZM23.4068 7.4C23.4014 7.064 23.2814 6.79467 23.0468 6.592C22.8121 6.38933 22.5214 6.288 22.1748 6.288C21.8601 6.288 21.5908 6.38933 21.3668 6.592C21.1428 6.78933 21.0094 7.05867 20.9668 7.4H23.4068ZM26.3203 6.336V8.776C26.3203 8.94133 26.3576 9.06133 26.4323 9.136C26.5123 9.20533 26.6456 9.24 26.8323 9.24H27.3923V10H26.6723C26.2616 10 25.9469 9.904 25.7283 9.712C25.5096 9.52 25.4003 9.208 25.4003 8.776V6.336H24.8803V5.592H25.4003V4.496H26.3203V5.592H27.3923V6.336H26.3203ZM32.2728 7.688C32.2728 7.85333 32.2621 8.00267 32.2408 8.136H28.8728C28.8995 8.488 29.0301 8.77067 29.2648 8.984C29.4995 9.19733 29.7875 9.304 30.1288 9.304C30.6195 9.304 30.9661 9.09867 31.1688 8.688H32.1528C32.0195 9.09333 31.7768 9.42667 31.4248 9.688C31.0781 9.944 30.6461 10.072 30.1288 10.072C29.7075 10.072 29.3288 9.97867 28.9928 9.792C28.6621 9.6 28.4008 9.33333 28.2088 8.992C28.0221 8.64533 27.9288 8.24533 27.9288 7.792C27.9288 7.33867 28.0195 6.94133 28.2008 6.6C28.3875 6.25333 28.6461 5.98667 28.9768 5.8C29.3128 5.61333 29.6968 5.52 30.1288 5.52C30.5448 5.52 30.9155 5.61067 31.2408 5.792C31.5661 5.97333 31.8195 6.22933 32.0008 6.56C32.1821 6.88533 32.2728 7.26133 32.2728 7.688ZM31.3208 7.4C31.3155 7.064 31.1955 6.79467 30.9608 6.592C30.7261 6.38933 30.4355 6.288 30.0888 6.288C29.7741 6.288 29.5048 6.38933 29.2808 6.592C29.0568 6.78933 28.9235 7.05867 28.8808 7.4H31.3208Z" fill="white"/>
</svg>
