<svg width="172" height="172" viewBox="0 0 172 172" fill="none" xmlns="http://www.w3.org/2000/svg">
<path d="M43 0C37.0875 0 32.25 4.8375 32.25 10.75V161.25C32.25 167.163 37.0875 172 43 172H150.5C156.412 172 161.25 167.163 161.25 161.25V43L118.25 0H43Z" fill="#E2E5E7"/>
<path d="M129 43H161.25L118.25 0V32.25C118.25 38.1625 123.088 43 129 43Z" fill="#B0B7BD"/>
<path d="M161.25 75.25L129 43H161.25V75.25Z" fill="#CAD1D8"/>
<path d="M140 140.125C140 143.081 137.581 145.5 134.625 145.5H16.375C13.4188 145.5 11 143.081 11 140.125V86.375C11 83.4188 13.4188 81 16.375 81H134.625C137.581 81 140 83.4188 140 86.375V140.125Z" fill="#3FA0E7"/>
<path d="M42.52 98.08C45.4533 98.08 48.0267 98.6533 50.24 99.8C52.48 100.947 54.2 102.587 55.4 104.72C56.6267 106.827 57.24 109.28 57.24 112.08C57.24 114.88 56.6267 117.333 55.4 119.44C54.2 121.52 52.48 123.133 50.24 124.28C48.0267 125.427 45.4533 126 42.52 126H32.76V98.08H42.52ZM42.32 121.24C45.2533 121.24 47.52 120.44 49.12 118.84C50.72 117.24 51.52 114.987 51.52 112.08C51.52 109.173 50.72 106.907 49.12 105.28C47.52 103.627 45.2533 102.8 42.32 102.8H38.36V121.24H42.32ZM73.8415 126.28C71.2282 126.28 68.8282 125.667 66.6415 124.44C64.4549 123.213 62.7215 121.52 61.4415 119.36C60.1615 117.173 59.5215 114.707 59.5215 111.96C59.5215 109.24 60.1615 106.8 61.4415 104.64C62.7215 102.453 64.4549 100.747 66.6415 99.52C68.8282 98.2933 71.2282 97.68 73.8415 97.68C76.4815 97.68 78.8815 98.2933 81.0415 99.52C83.2282 100.747 84.9482 102.453 86.2015 104.64C87.4815 106.8 88.1215 109.24 88.1215 111.96C88.1215 114.707 87.4815 117.173 86.2015 119.36C84.9482 121.52 83.2282 123.213 81.0415 124.44C78.8549 125.667 76.4549 126.28 73.8415 126.28ZM73.8415 121.28C75.5215 121.28 77.0015 120.907 78.2815 120.16C79.5615 119.387 80.5615 118.293 81.2815 116.88C82.0015 115.467 82.3615 113.827 82.3615 111.96C82.3615 110.093 82.0015 108.467 81.2815 107.08C80.5615 105.667 79.5615 104.587 78.2815 103.84C77.0015 103.093 75.5215 102.72 73.8415 102.72C72.1615 102.72 70.6682 103.093 69.3615 103.84C68.0815 104.587 67.0815 105.667 66.3615 107.08C65.6415 108.467 65.2815 110.093 65.2815 111.96C65.2815 113.827 65.6415 115.467 66.3615 116.88C67.0815 118.293 68.0815 119.387 69.3615 120.16C70.6682 120.907 72.1615 121.28 73.8415 121.28ZM90.3774 112C90.3774 109.253 90.9908 106.8 92.2174 104.64C93.4708 102.453 95.1641 100.76 97.2974 99.56C99.4574 98.3333 101.871 97.72 104.537 97.72C107.657 97.72 110.391 98.52 112.737 100.12C115.084 101.72 116.724 103.933 117.657 106.76H111.217C110.577 105.427 109.671 104.427 108.497 103.76C107.351 103.093 106.017 102.76 104.497 102.76C102.871 102.76 101.417 103.147 100.137 103.92C98.8841 104.667 97.8974 105.733 97.1774 107.12C96.4841 108.507 96.1374 110.133 96.1374 112C96.1374 113.84 96.4841 115.467 97.1774 116.88C97.8974 118.267 98.8841 119.347 100.137 120.12C101.417 120.867 102.871 121.24 104.497 121.24C106.017 121.24 107.351 120.907 108.497 120.24C109.671 119.547 110.577 118.533 111.217 117.2H117.657C116.724 120.053 115.084 122.28 112.737 123.88C110.417 125.453 107.684 126.24 104.537 126.24C101.871 126.24 99.4574 125.64 97.2974 124.44C95.1641 123.213 93.4708 121.52 92.2174 119.36C90.9908 117.2 90.3774 114.747 90.3774 112Z" fill="white"/>
<path d="M134.375 145.125H32.25V150.5H134.375C137.331 150.5 139.75 148.081 139.75 145.125V139.75C139.75 142.706 137.331 145.125 134.375 145.125Z" fill="#CAD1D8"/>
</svg>
