<svg width="73" height="73" viewBox="0 0 73 73" fill="none" xmlns="http://www.w3.org/2000/svg">
<g filter="url(#filter0_d_2913:270)">
<circle cx="36.5" cy="36.5" r="26.5" fill="#4BA950"/>
</g>
<path d="M36.5005 10C36.0127 10 35.6172 10.3955 35.6172 10.8833V16.1833C35.6172 16.6712 36.0127 17.0667 36.5005 17.0667C36.9883 17.0667 37.3839 16.6712 37.3839 16.1833V10.8833C37.3839 10.3955 36.9883 10 36.5005 10Z" fill="white" fill-opacity="0.1"/>
<path d="M33.0754 11.9891L32.9217 11.1191C32.837 10.6385 32.3789 10.3175 31.8984 10.4022C31.4178 10.4869 31.0968 10.945 31.1815 11.4256L31.3352 12.2957C31.4098 12.7175 31.7761 13.025 32.2044 13.0253C32.256 13.0252 32.3073 13.0208 32.3581 13.012H32.3582C32.8388 12.9276 33.1599 12.4697 33.0754 11.9891Z" fill="white" fill-opacity="0.1"/>
<path d="M28.8691 12.9564L28.567 12.126C28.5633 12.1152 28.5594 12.1045 28.5553 12.0938C28.3795 11.6387 27.8682 11.4122 27.413 11.588C26.9579 11.7638 26.7314 12.2751 26.9072 12.7302L27.2084 13.5597C27.3352 13.909 27.6671 14.1418 28.0388 14.1418C28.1419 14.1418 28.2443 14.1238 28.3411 14.0886C28.7995 13.9217 29.0359 13.4148 28.8691 12.9564Z" fill="white" fill-opacity="0.1"/>
<path d="M21.2763 16.9853L20.7083 16.3086C20.3965 15.9523 19.8592 15.9052 19.4902 16.2019C19.1099 16.5075 19.0494 17.0634 19.355 17.4437L19.923 18.1203C20.0907 18.3206 20.3384 18.4364 20.5996 18.4366C20.8074 18.4366 21.0086 18.3634 21.1677 18.2298C21.5414 17.9161 21.59 17.3589 21.2763 16.9853Z" fill="white" fill-opacity="0.1"/>
<path d="M18.1212 19.9231L17.4445 19.3552C17.0755 19.0586 16.5382 19.1056 16.2264 19.4619C15.9051 19.8291 15.9423 20.3871 16.3095 20.7084L16.9861 21.2764C17.145 21.4098 17.3457 21.4829 17.5532 21.4831C17.8143 21.4831 18.0621 21.3676 18.2299 21.1676C18.5436 20.7939 18.4948 20.2367 18.1212 19.9231Z" fill="white" fill-opacity="0.1"/>
<path d="M13.5586 27.21L12.7291 26.9088C12.7185 26.9047 12.7077 26.9007 12.6969 26.8971C12.2354 26.7391 11.7331 26.9853 11.5752 27.4469C11.4172 27.9084 11.6634 28.4107 12.1249 28.5686L12.9553 28.8707C13.0518 28.9061 13.1537 28.9243 13.2565 28.9246C13.6303 28.9259 13.9644 28.6919 14.0909 28.3401C14.256 27.8811 14.0177 27.3751 13.5586 27.21Z" fill="white" fill-opacity="0.1"/>
<path d="M12.2976 31.3353L11.4275 31.1816C10.947 31.0969 10.4889 31.4179 10.4042 31.8984C10.3195 32.379 10.6405 32.8371 11.121 32.9218L11.9911 33.0755C12.0419 33.0842 12.0932 33.0886 12.1448 33.0887C12.574 33.089 12.9412 32.7806 13.0153 32.3578C13.0995 31.8772 12.7781 31.4195 12.2976 31.3353Z" fill="white" fill-opacity="0.1"/>
<path d="M13.0111 40.6413C12.9264 40.1608 12.4683 39.8398 11.9878 39.9245L11.1177 40.0782C10.6952 40.1522 10.3871 40.519 10.3867 40.9478C10.3865 41.4357 10.7817 41.8314 11.2696 41.8316C11.3214 41.8315 11.3732 41.8271 11.4242 41.8184L12.2943 41.6647C12.7748 41.58 13.0958 41.1219 13.0111 40.6413Z" fill="white" fill-opacity="0.1"/>
<path d="M14.0873 44.6578C13.9207 44.1993 13.4139 43.9625 12.9553 44.1291L12.125 44.4312C11.7754 44.5581 11.5427 44.8904 11.543 45.2624C11.5434 45.7502 11.9391 46.1454 12.4271 46.1449C12.5301 46.1447 12.6323 46.1265 12.7292 46.091L13.5586 45.7898C14.0172 45.6232 14.2539 45.1164 14.0873 44.6578Z" fill="white" fill-opacity="0.1"/>
<path d="M18.2308 51.8046C17.9096 51.4374 17.3514 51.4002 16.9843 51.7214L16.3076 52.2895C16.1076 52.4574 15.9921 52.7051 15.9922 52.9663C15.9923 53.4541 16.3878 53.8495 16.8756 53.8495C17.0831 53.8493 17.2838 53.7762 17.4427 53.6428L18.1194 53.0748C18.129 53.0671 18.1384 53.0593 18.1476 53.0511C18.5148 52.7299 18.552 52.1718 18.2308 51.8046Z" fill="white" fill-opacity="0.1"/>
<path d="M21.1682 54.7446C20.7879 54.439 20.232 54.4995 19.9264 54.8798L19.3584 55.5564C19.2254 55.7152 19.1525 55.9157 19.1523 56.1228C19.152 56.6107 19.5472 57.0065 20.035 57.0068C20.296 57.0068 20.5438 56.8915 20.7116 56.6915L21.2796 56.0149C21.2878 56.0056 21.2956 55.9961 21.3034 55.9865C21.609 55.6063 21.5485 55.0503 21.1682 54.7446Z" fill="white" fill-opacity="0.1"/>
<path d="M28.3419 58.9113C27.8833 58.7447 27.3765 58.9814 27.2099 59.44L26.9087 60.2694C26.8735 60.3664 26.8554 60.4686 26.8555 60.5718C26.8556 61.0596 27.2512 61.455 27.739 61.4549C28.1101 61.4546 28.4415 61.2223 28.5685 60.8736L28.8706 60.0433C29.0372 59.5847 28.8005 59.0779 28.3419 58.9113Z" fill="white" fill-opacity="0.1"/>
<path d="M32.3585 59.9871C31.8779 59.9024 31.4198 60.2234 31.3351 60.7039L31.1814 61.574V61.5741C31.0971 62.0547 31.4182 62.5126 31.8987 62.5969C31.9494 62.6064 32.0008 62.6111 32.0524 62.6111C32.481 62.6106 32.8474 62.3027 32.9216 61.8806L33.0753 61.0105C33.16 60.5299 32.839 60.0718 32.3585 59.9871Z" fill="white" fill-opacity="0.1"/>
<path d="M41.8176 61.574L41.6639 60.7039C41.5792 60.2234 41.1211 59.9024 40.6405 59.9871C40.16 60.0718 39.839 60.5299 39.9237 61.0105L40.0774 61.8805C40.1516 62.3027 40.518 62.6106 40.9466 62.6111C40.9982 62.6111 41.0496 62.6064 41.1003 62.5969H41.1004C41.581 62.5125 41.902 62.0546 41.8176 61.574Z" fill="white" fill-opacity="0.1"/>
<path d="M46.0895 60.2694L45.7882 59.44C45.6216 58.9814 45.1148 58.7447 44.6562 58.9113C44.1977 59.0779 43.9609 59.5847 44.1276 60.0433L44.4297 60.8736C44.5566 61.2224 44.888 61.4546 45.2591 61.4549C45.3622 61.4549 45.4646 61.4369 45.5614 61.4016C46.0199 61.2348 46.2563 60.7279 46.0895 60.2694Z" fill="white" fill-opacity="0.1"/>
<path d="M53.6438 55.5562L53.0758 54.8796C53.0681 54.87 53.0602 54.8606 53.0521 54.8513C52.7309 54.4842 52.1727 54.447 51.8056 54.7682C51.4384 55.0894 51.4012 55.6475 51.7225 56.0147L52.2905 56.6913C52.4578 56.8919 52.7059 57.0075 52.9671 57.0067C53.1743 57.0065 53.3748 56.9336 53.5336 56.8006C53.9077 56.4874 53.957 55.9302 53.6438 55.5562Z" fill="white" fill-opacity="0.1"/>
<path d="M56.6924 52.2897L56.0158 51.7218C56.0065 51.7137 55.9971 51.7058 55.9875 51.698C55.6072 51.3924 55.0513 51.4529 54.7456 51.8332C54.44 52.2134 54.5005 52.7694 54.8808 53.075L55.5574 53.643C55.7163 53.7764 55.917 53.8495 56.1245 53.8497C56.3856 53.8497 56.6334 53.7342 56.8013 53.5343C57.1148 53.1605 57.066 52.6033 56.6924 52.2897Z" fill="white" fill-opacity="0.1"/>
<path d="M60.8711 44.4312L60.0408 44.1291C59.5822 43.9625 59.0754 44.1993 58.9088 44.6578C58.7422 45.1164 58.9789 45.6232 59.4375 45.7898L60.2669 46.091C60.3638 46.1265 60.4659 46.1447 60.569 46.1449C60.9409 46.1452 61.2732 45.9126 61.4001 45.5629C61.5665 45.1043 61.3297 44.5976 60.8711 44.4312Z" fill="white" fill-opacity="0.1"/>
<path d="M61.8796 40.0782L61.0096 39.9245C60.529 39.8398 60.0709 40.1608 59.9862 40.6413C59.9015 41.1219 60.2225 41.58 60.703 41.6647L61.5731 41.8184C61.6241 41.8271 61.6759 41.8315 61.7277 41.8316C62.1566 41.8314 62.5233 41.5231 62.5973 41.1007C62.6815 40.6201 62.3602 40.1623 61.8796 40.0782Z" fill="white" fill-opacity="0.1"/>
<path d="M62.597 31.8984C62.5123 31.4179 62.0542 31.0969 61.5737 31.1816L60.7036 31.3353C60.2808 31.4094 59.9725 31.7767 59.9727 32.2058C59.9729 32.6937 60.3685 33.089 60.8564 33.0887C60.908 33.0886 60.9593 33.0842 61.0101 33.0755L61.8802 32.9218C62.3607 32.8371 62.6817 32.379 62.597 31.8984Z" fill="white" fill-opacity="0.1"/>
<path d="M61.4116 27.4145C61.236 26.9594 60.7245 26.7329 60.2694 26.9087L59.4399 27.2099C59.0882 27.3363 58.8541 27.6706 58.8555 28.0443C58.8572 28.5321 59.2542 28.9262 59.742 28.9245C59.8448 28.9242 59.9467 28.906 60.0432 28.8706L60.8736 28.5685C60.8844 28.5648 60.8951 28.5608 60.9057 28.5568C61.3608 28.381 61.5873 27.8696 61.4116 27.4145Z" fill="white" fill-opacity="0.1"/>
<path d="M56.7965 19.4907C56.4908 19.1104 55.9349 19.0499 55.5546 19.3556L54.878 19.9236C54.6779 20.0914 54.5624 20.3392 54.5625 20.6003C54.5626 21.0881 54.9581 21.4835 55.4459 21.4835C55.6534 21.4833 55.8542 21.4102 56.013 21.2768L56.6897 20.7088C57.046 20.397 57.0931 19.8597 56.7965 19.4907Z" fill="white" fill-opacity="0.1"/>
<path d="M53.5369 16.2258C53.1698 15.9046 52.6117 15.9417 52.2904 16.3089L51.7224 16.9855C51.5888 17.1446 51.5156 17.3458 51.5156 17.5536C51.5157 18.0414 51.9112 18.4369 52.3991 18.4368C52.6603 18.4366 52.908 18.3209 53.0757 18.1206L53.6437 17.4439C53.9404 17.0749 53.8932 16.5375 53.5369 16.2258Z" fill="white" fill-opacity="0.1"/>
<path d="M45.5513 11.5765C45.0897 11.4185 44.5874 11.6646 44.4295 12.1261L44.1274 12.9565C44.0922 13.0534 44.0741 13.1557 44.0742 13.2588C44.0743 13.7466 44.47 14.142 44.9578 14.1419C45.3294 14.1419 45.6613 13.9092 45.7881 13.5598L46.0893 12.7303C46.0934 12.7197 46.0973 12.709 46.101 12.6982C46.2589 12.2367 46.0128 11.7344 45.5513 11.5765Z" fill="white" fill-opacity="0.1"/>
<path d="M41.1007 10.4022C40.6201 10.3176 40.162 10.6385 40.0773 11.1191L39.9236 11.9892V11.9893C39.8393 12.4698 40.1603 12.9277 40.6409 13.0121C40.6917 13.0208 40.743 13.0252 40.7946 13.0253C41.2229 13.025 41.5893 12.7175 41.6638 12.2957L41.8175 11.4256C41.9022 10.9451 41.5812 10.4869 41.1007 10.4022Z" fill="white" fill-opacity="0.1"/>
<path d="M26.2208 16.9335L24.4541 13.8736C24.2097 13.4567 23.6756 13.3136 23.2555 13.5524C22.8314 13.7936 22.6831 14.3329 22.9242 14.757L24.6909 17.8168C24.8488 18.0905 25.1408 18.2588 25.4567 18.2585C25.6115 18.2584 25.7635 18.2175 25.8975 18.1401C26.32 17.8962 26.4647 17.356 26.2208 16.9335Z" fill="white" fill-opacity="0.1"/>
<path d="M17.8136 24.6934L14.7537 22.9268C14.3336 22.6879 13.7995 22.831 13.555 23.248C13.3083 23.6689 13.4494 24.21 13.8704 24.4567L16.9302 26.2234C17.0645 26.3009 17.2169 26.3417 17.3719 26.3417C17.6875 26.3417 17.9791 26.1733 18.1369 25.9001C18.3808 25.4776 18.236 24.9373 17.8136 24.6934Z" fill="white" fill-opacity="0.1"/>
<path d="M18.144 47.0918C17.8972 46.671 17.356 46.5299 16.9351 46.7767L13.8753 48.5433C13.602 48.7011 13.4336 48.9927 13.4336 49.3083C13.4336 49.7961 13.829 50.1916 14.3169 50.1916C14.4721 50.192 14.6244 50.1511 14.7586 50.0733L17.8185 48.3066C17.8219 48.3046 17.8253 48.3026 17.8287 48.3006C18.2496 48.0539 18.3908 47.5127 18.144 47.0918Z" fill="white" fill-opacity="0.1"/>
<path d="M25.8982 54.852C25.4741 54.6108 24.9348 54.7591 24.6936 55.1832L22.927 58.2431C22.8496 58.3771 22.8088 58.5291 22.8086 58.6839C22.808 59.1717 23.2031 59.5676 23.691 59.5681C24.0069 59.5684 24.299 59.4 24.4569 59.1264L26.2236 56.0666C26.2255 56.0632 26.2274 56.0598 26.2294 56.0564C26.4706 55.6324 26.3222 55.0931 25.8982 54.852Z" fill="white" fill-opacity="0.1"/>
<path d="M50.0723 58.243L48.3056 55.1831C48.0611 54.7663 47.5272 54.6232 47.1071 54.862C46.683 55.1031 46.5346 55.6424 46.7757 56.0665L48.5423 59.1263C48.7002 59.3999 48.9923 59.5683 49.3082 59.568C49.4629 59.5679 49.6149 59.527 49.749 59.4496C50.1714 59.2057 50.3162 58.6654 50.0723 58.243Z" fill="white" fill-opacity="0.1"/>
<path d="M59.1259 48.5434L56.066 46.7767C55.6459 46.5379 55.1119 46.681 54.8676 47.0978C54.6208 47.5186 54.7619 48.0599 55.1827 48.3067L58.2426 50.0733C58.3767 50.1512 58.5291 50.192 58.6842 50.1917C58.9998 50.1917 59.2914 50.0233 59.4492 49.75C59.6931 49.3276 59.5484 48.7873 59.1259 48.5434Z" fill="white" fill-opacity="0.1"/>
<path d="M59.4483 23.2582C59.2071 22.8341 58.6678 22.6858 58.2437 22.927L55.1839 24.6936C54.9106 24.8514 54.7422 25.143 54.7422 25.4586C54.7422 25.9464 55.1376 26.3419 55.6255 26.3419C55.7805 26.3419 55.9329 26.3011 56.0672 26.2236L59.1271 24.4569C59.544 24.2124 59.6871 23.6784 59.4483 23.2582Z" fill="white" fill-opacity="0.1"/>
<path d="M49.754 13.5581C49.3332 13.3114 48.792 13.4525 48.5452 13.8733L46.7785 16.9331C46.7011 17.0672 46.6604 17.2191 46.6602 17.3739C46.6596 17.8617 47.0548 18.2577 47.5426 18.2581C47.8585 18.2585 48.1506 18.0901 48.3085 17.8165L50.0751 14.7566C50.314 14.3365 50.1709 13.8025 49.754 13.5581Z" fill="white" fill-opacity="0.1"/>
<path d="M16.1833 35.6167H10.8833C10.3955 35.6167 10 36.0122 10 36.5C10 36.9878 10.3955 37.3834 10.8833 37.3834H16.1833C16.6712 37.3834 17.0667 36.9878 17.0667 36.5C17.0667 36.0122 16.6712 35.6167 16.1833 35.6167Z" fill="white" fill-opacity="0.1"/>
<path d="M36.5005 55.9333C36.0127 55.9333 35.6172 56.3288 35.6172 56.8166V62.1166C35.6172 62.6045 36.0127 63 36.5005 63C36.9883 63 37.3839 62.6045 37.3839 62.1166V56.8166C37.3839 56.3288 36.9883 55.9333 36.5005 55.9333Z" fill="white" fill-opacity="0.1"/>
<path d="M62.1174 35.6167H55.9341C55.4463 35.6167 55.0508 36.0122 55.0508 36.5C55.0508 36.9878 55.4463 37.3834 55.9341 37.3834H62.1174C62.6053 37.3834 63.0008 36.9878 63.0008 36.5C63.0008 36.0122 62.6053 35.6167 62.1174 35.6167Z" fill="white" fill-opacity="0.1"/>
<path d="M49.0711 23.9753C48.7262 23.6305 48.167 23.6305 47.8221 23.9753L38.2953 33.502C37.7578 33.1944 37.1479 33.0362 36.5286 33.0436C35.9456 33.0572 35.3752 33.2156 34.8689 33.5047L30.3365 28.9723C29.9915 28.6259 29.4312 28.6247 29.0848 28.9697C28.7384 29.3146 28.7372 29.875 29.0821 30.2213L33.5783 34.7175C32.5393 36.3728 33.0389 38.5569 34.6942 39.5959C36.3494 40.635 38.5336 40.1353 39.5726 38.48C40.2946 37.3297 40.2946 35.8677 39.5726 34.7175L49.0711 25.2243C49.4159 24.8794 49.4159 24.3202 49.0711 23.9753ZM37.9026 37.8053C37.2378 38.5195 36.1199 38.5596 35.4057 37.8949C35.388 37.8784 35.3708 37.8616 35.3538 37.8445C34.6537 37.165 34.6369 36.0465 35.3164 35.3463C35.6423 35.0106 36.0881 34.8177 36.556 34.8103C37.0256 34.7968 37.4801 34.977 37.813 35.3085C38.5272 35.9732 38.5673 37.0911 37.9026 37.8053Z" fill="white" fill-opacity="0.1"/>
<defs>
<filter id="filter0_d_2913:270" x="0" y="0" width="73" height="73" filterUnits="userSpaceOnUse" color-interpolation-filters="sRGB">
<feFlood flood-opacity="0" result="BackgroundImageFix"/>
<feColorMatrix in="SourceAlpha" type="matrix" values="0 0 0 0 0 0 0 0 0 0 0 0 0 0 0 0 0 0 127 0" result="hardAlpha"/>
<feOffset/>
<feGaussianBlur stdDeviation="5"/>
<feComposite in2="hardAlpha" operator="out"/>
<feColorMatrix type="matrix" values="0 0 0 0 0 0 0 0 0 0 0 0 0 0 0 0 0 0 0.05 0"/>
<feBlend mode="normal" in2="BackgroundImageFix" result="effect1_dropShadow_2913:270"/>
<feBlend mode="normal" in="SourceGraphic" in2="effect1_dropShadow_2913:270" result="shape"/>
</filter>
</defs>
</svg>
