<svg width="177" height="177" viewBox="0 0 177 177" fill="none" xmlns="http://www.w3.org/2000/svg">
<g clip-path="url(#clip0_2456_7416)">
<path d="M46.0903 136.668C34.2835 136.668 23.7811 129.109 19.9675 117.854L19.7095 117.006C18.8102 114.026 18.4334 111.519 18.4334 109.011V58.7266L0.54146 118.451C-1.75968 127.236 3.48406 136.343 12.2822 138.77L126.325 169.311C127.748 169.68 129.172 169.857 130.574 169.857C137.919 169.857 144.63 164.982 146.511 157.797L153.156 136.668H46.0903Z" fill="#ECEFF1"/>
<path d="M177 24.1957V109.011C177 118.156 169.551 125.605 160.406 125.605H46.0903C45.3529 125.605 44.6156 125.531 43.9512 125.457C36.2078 124.499 30.1605 118.156 29.5704 110.339C29.4961 109.896 29.4961 109.453 29.4961 109.011V24.1957C29.4961 15.0506 36.9451 7.60156 46.0903 7.60156H160.406C169.551 7.60156 177 15.0506 177 24.1957Z" fill="#ECEFF1"/>
<path d="M81.1219 44.4774C81.1219 52.6232 74.5182 59.2282 66.3724 59.2282C58.2252 59.2282 51.6216 52.6232 51.6216 44.4774C51.6216 36.3315 58.2252 29.7266 66.3724 29.7266C74.5182 29.7266 81.1219 36.3315 81.1219 44.4774Z" fill="#FFC107"/>
<path d="M177 88.2847V109.01C177 118.155 169.551 125.604 160.406 125.604H46.0903C45.3529 125.604 44.6156 125.53 43.9512 125.455L119.916 49.4921C124.931 44.4766 133.191 44.4766 138.206 49.4921L177 88.2847Z" fill="#388E3C"/>
<path d="M133.191 125.603H46.0902C45.3529 125.603 44.6155 125.529 43.9511 125.455C36.2077 124.497 30.1605 118.154 29.5703 110.337L64.602 75.3036C69.6175 70.2894 77.8768 70.2894 82.8923 75.3036L133.191 125.603Z" fill="#4CAF50"/>
</g>
<defs>
<clipPath id="clip0_2456_7416">
<rect width="177" height="177" fill="white"/>
</clipPath>
</defs>
</svg>
