<svg width="127" height="127" viewBox="0 0 127 127" fill="none" xmlns="http://www.w3.org/2000/svg">
<path d="M114.124 0H12.8788C5.95317 0 0.338867 5.61431 0.338867 12.5399V113.785C0.338867 120.71 5.95317 126.325 12.8788 126.325H114.124C121.049 126.325 126.663 120.71 126.663 113.785V12.5399C126.663 5.61431 121.049 0 114.124 0Z" fill="#1A3849"/>
<path d="M28.7937 77.4204H51.7631V88.0659H14.041V78.18L36.8535 45.3315H14.041V34.686H51.7563V44.572L28.7937 77.4204Z" fill="#9BD08F"/>
<path d="M109.418 59.2268C111.779 61.6435 112.959 65.001 112.959 69.2992V88.0658H103.18V70.6251C103.18 68.551 102.634 66.9484 101.541 65.8174C100.447 64.6864 98.9412 64.1201 97.0217 64.1186C95.1023 64.1186 93.596 64.6849 92.5029 65.8174C91.4098 66.95 90.8625 68.5525 90.8609 70.6251V88.0658H81.0819V70.6251C81.0819 68.551 80.5354 66.9484 79.4422 65.8174C78.3491 64.6864 76.8428 64.1201 74.9234 64.1186C73.004 64.1186 71.4977 64.6849 70.4046 65.8174C69.3114 66.95 68.7641 68.5525 68.7626 70.6251V88.0658H58.9062V55.9451H68.749V59.975C69.7771 58.6121 71.1211 57.5195 72.6651 56.7911C74.3699 55.9843 76.2374 55.5805 78.1232 55.6108C80.3792 55.5713 82.6081 56.1067 84.6001 57.1664C86.4821 58.1848 88.0312 59.7236 89.0621 61.5988C90.2009 59.8072 91.7629 58.3233 93.6104 57.2778C95.5143 56.1656 97.6823 55.5859 99.8872 55.5995C103.882 55.5995 107.059 56.8086 109.418 59.2268Z" fill="#9BD08F"/>
</svg>
