<svg width="130" height="130" viewBox="0 0 130 130" fill="none" xmlns="http://www.w3.org/2000/svg">
<g clip-path="url(#clip0_2456_7440)">
<path d="M127.453 1.43145C126.172 0.319597 124.47 -0.180599 122.79 0.0585811L40.8357 11.7662C37.9515 12.1783 35.8096 14.6483 35.8096 17.5616V40.9771V86.1948C32.3423 84.1747 28.3171 83.0115 24.023 83.0115C11.0685 83.0115 0.528809 93.5512 0.528809 106.506C0.528809 119.46 11.0682 130 24.0228 130C36.9773 130 47.517 119.46 47.517 106.506V46.0542L117.763 36.0191V74.4869C114.296 72.4668 110.271 71.3037 105.977 71.3037C93.0223 71.3037 82.4827 81.8433 82.4827 94.7979C82.4827 107.752 93.0223 118.292 105.977 118.292C118.931 118.292 129.471 107.752 129.471 94.7979V29.2692V5.85374C129.471 4.15663 128.735 2.54331 127.453 1.43145Z" fill="#E91E63"/>
</g>
<defs>
<clipPath id="clip0_2456_7440">
<rect width="130" height="130" fill="white"/>
</clipPath>
</defs>
</svg>
