<svg width="172" height="172" viewBox="0 0 172 172" fill="none" xmlns="http://www.w3.org/2000/svg">
<path d="M43 0C37.0875 0 32.25 4.8375 32.25 10.75V161.25C32.25 167.163 37.0875 172 43 172H150.5C156.412 172 161.25 167.163 161.25 161.25V43L118.25 0H43Z" fill="#E2E5E7"/>
<path d="M129 43H161.25L118.25 0V32.25C118.25 38.1625 123.088 43 129 43Z" fill="#B0B7BD"/>
<path d="M161.25 75.25L129 43H161.25V75.25Z" fill="#CAD1D8"/>
<path d="M140 140.125C140 143.081 137.581 145.5 134.625 145.5H16.375C13.4188 145.5 11 143.081 11 140.125V86.375C11 83.4188 13.4188 81 16.375 81H134.625C137.581 81 140 83.4188 140 86.375V140.125Z" fill="#F15642"/>
<path d="M60.12 106.72C60.12 108.213 59.76 109.613 59.04 110.92C58.3467 112.227 57.24 113.28 55.72 114.08C54.2267 114.88 52.3333 115.28 50.04 115.28H45.36V126H39.76V98.08H50.04C52.2 98.08 54.04 98.4533 55.56 99.2C57.08 99.9467 58.2133 100.973 58.96 102.28C59.7333 103.587 60.12 105.067 60.12 106.72ZM49.8 110.76C51.3467 110.76 52.4933 110.413 53.24 109.72C53.9867 109 54.36 108 54.36 106.72C54.36 104 52.84 102.64 49.8 102.64H45.36V110.76H49.8ZM73.3056 98.08C76.2389 98.08 78.8123 98.6533 81.0256 99.8C83.2656 100.947 84.9856 102.587 86.1856 104.72C87.4123 106.827 88.0256 109.28 88.0256 112.08C88.0256 114.88 87.4123 117.333 86.1856 119.44C84.9856 121.52 83.2656 123.133 81.0256 124.28C78.8123 125.427 76.2389 126 73.3056 126H63.5456V98.08H73.3056ZM73.1056 121.24C76.0389 121.24 78.3056 120.44 79.9056 118.84C81.5056 117.24 82.3056 114.987 82.3056 112.08C82.3056 109.173 81.5056 106.907 79.9056 105.28C78.3056 103.627 76.0389 102.8 73.1056 102.8H69.1456V121.24H73.1056ZM108.907 98.08V102.6H97.2671V109.76H106.187V114.2H97.2671V126H91.6671V98.08H108.907Z" fill="white"/>
<path d="M134.375 145.125H32.25V150.5H134.375C137.331 150.5 139.75 148.081 139.75 145.125V139.75C139.75 142.706 137.331 145.125 134.375 145.125Z" fill="#CAD1D8"/>
</svg>
