<svg width="172" height="172" viewBox="0 0 172 172" fill="none" xmlns="http://www.w3.org/2000/svg">
<path d="M43 0C37.0875 0 32.25 4.8375 32.25 10.75V161.25C32.25 167.163 37.0875 172 43 172H150.5C156.412 172 161.25 167.163 161.25 161.25V43L118.25 0H43Z" fill="#E2E5E7"/>
<path d="M129 43H161.25L118.25 0V32.25C118.25 38.1625 123.088 43 129 43Z" fill="#B0B7BD"/>
<path d="M161.25 75.25L129 43H161.25V75.25Z" fill="#CAD1D8"/>
<path d="M140 140.125C140 143.081 137.581 145.5 134.625 145.5H16.375C13.4188 145.5 11 143.081 11 140.125V86.375C11 83.4188 13.4188 81 16.375 81H134.625C137.581 81 140 83.4188 140 86.375V140.125Z" fill="#CB4525"/>
<path d="M63.12 106.72C63.12 108.213 62.76 109.613 62.04 110.92C61.3467 112.227 60.24 113.28 58.72 114.08C57.2267 114.88 55.3333 115.28 53.04 115.28H48.36V126H42.76V98.08H53.04C55.2 98.08 57.04 98.4533 58.56 99.2C60.08 99.9467 61.2133 100.973 61.96 102.28C62.7333 103.587 63.12 105.067 63.12 106.72ZM52.8 110.76C54.3467 110.76 55.4933 110.413 56.24 109.72C56.9867 109 57.36 108 57.36 106.72C57.36 104 55.84 102.64 52.8 102.64H48.36V110.76H52.8ZM86.9056 106.72C86.9056 108.213 86.5456 109.613 85.8256 110.92C85.1323 112.227 84.0256 113.28 82.5056 114.08C81.0123 114.88 79.1189 115.28 76.8256 115.28H72.1456V126H66.5456V98.08H76.8256C78.9856 98.08 80.8256 98.4533 82.3456 99.2C83.8656 99.9467 84.9989 100.973 85.7456 102.28C86.5189 103.587 86.9056 105.067 86.9056 106.72ZM76.5856 110.76C78.1323 110.76 79.2789 110.413 80.0256 109.72C80.7723 109 81.1456 108 81.1456 106.72C81.1456 104 79.6256 102.64 76.5856 102.64H72.1456V110.76H76.5856ZM109.331 98.08V102.6H101.891V126H96.2912V102.6H88.8512V98.08H109.331Z" fill="white"/>
<path d="M134.375 145.125H32.25V150.5H134.375C137.331 150.5 139.75 148.081 139.75 145.125V139.75C139.75 142.706 137.331 145.125 134.375 145.125Z" fill="#CAD1D8"/>
</svg>
