<svg width="15" height="15" viewBox="0 0 10 13" fill="none" xmlns="http://www.w3.org/2000/svg">
<path d="M5.77766 3.9998C5.75449 3.9998 1.19866 3.9998 1.19866 3.9998L3.6333 1.27094C3.79118 1.09397 3.77571 0.822531 3.59874 0.66465C3.42183 0.506803 3.15033 0.522209 2.99245 0.699215L0.250476 3.77249C-0.083514 4.14695 -0.0834808 4.71154 0.250509 5.0859L2.99248 8.15921C3.07735 8.25434 3.19492 8.30275 3.31303 8.30275C3.41476 8.30275 3.51686 8.26679 3.59877 8.19378C3.77574 8.0359 3.79118 7.76446 3.63334 7.58749L1.19869 4.85859C1.19869 4.85859 5.75448 4.85859 5.77769 4.85859C7.63235 4.85859 9.14116 6.36748 9.14116 8.22207C9.14116 10.0767 7.63232 11.5855 5.77769 11.5855H3.73305C3.49588 11.5855 3.30363 11.7778 3.30363 12.015C3.30363 12.2521 3.49588 12.4444 3.73305 12.4444H5.77769C8.10589 12.4444 9.99999 10.5503 9.99999 8.22207C9.99996 5.8939 8.10586 3.9998 5.77766 3.9998Z" fill="#067BD5"/>
</svg>
