<svg width="15" height="15" viewBox="0 0 14 13" fill="none" xmlns="http://www.w3.org/2000/svg">
<path d="M9.77766 3.9998C9.75449 3.9998 5.19866 3.9998 5.19866 3.9998L7.6333 1.27094C7.79118 1.09397 7.77571 0.822531 7.59874 0.66465C7.42183 0.506803 7.15033 0.522209 6.99245 0.699215L4.25048 3.77249C3.91649 4.14695 3.91652 4.71154 4.25051 5.0859L6.99248 8.15921C7.07735 8.25434 7.19492 8.30275 7.31303 8.30275C7.41476 8.30275 7.51686 8.26679 7.59877 8.19378C7.77574 8.0359 7.79118 7.76446 7.63334 7.58749L5.19869 4.85859C5.19869 4.85859 9.75448 4.85859 9.77769 4.85859C11.6324 4.85859 13.1412 6.36748 13.1412 8.22207C13.1412 10.0767 11.6323 11.5855 9.77769 11.5855H7.73305C7.49588 11.5855 7.30363 11.7778 7.30363 12.015C7.30363 12.2521 7.49588 12.4444 7.73305 12.4444H9.77769C12.1059 12.4444 14 10.5503 14 8.22207C14 5.8939 12.1059 3.9998 9.77766 3.9998Z" fill="#067BD5"/>
<path d="M1.19866 3.9998L3.6333 1.27094C3.79118 1.09397 3.77571 0.822531 3.59874 0.66465C3.42183 0.506803 3.15033 0.522209 2.99245 0.699215L0.250476 3.77249C-0.083514 4.14695 -0.0834808 4.71154 0.250509 5.0859L2.99248 8.15921C3.07735 8.25434 3.19492 8.30275 3.31303 8.30275C3.41476 8.30275 3.51686 8.26679 3.59877 8.19378C3.77574 8.0359 3.79118 7.76446 3.63334 7.58749L1.19869 4.85859C1 4.5 1 4.5 1.19866 3.9998Z" fill="#067BD5"/>
</svg>
