<svg width="15" height="15" viewBox="0 0 15 15" fill="none" xmlns="http://www.w3.org/2000/svg">
<g clip-path="url(#clip0_3678_349)">
<path d="M6.53588 3.78599C8.09667 3.23126 9.77356 3.89531 10.5996 5.26021L10.0481 5.45623L12.0344 6.93916L12.6393 4.53526L11.9363 4.78512C10.8407 2.70389 8.35477 1.68024 6.07539 2.49038C4.70292 2.97819 3.69208 4.03063 3.20335 5.29308L4.36282 6.15863C4.64185 5.09465 5.42365 4.1813 6.53588 3.78599Z" fill="#878D91"/>
<path d="M12.1701 8.75601L11.0106 7.89046C10.7316 8.95443 9.94975 9.86781 8.83753 10.2631C7.27481 10.8185 5.58143 10.1629 4.75496 8.79556L5.32537 8.59282L3.33905 7.10989L2.73418 9.51378L3.43457 9.26485C4.53032 11.3463 7.01846 12.3689 9.29803 11.5587C10.6705 11.0709 11.6813 10.0185 12.1701 8.75601Z" fill="#878D91"/>
</g>
<defs>
<clipPath id="clip0_3678_349">
<rect width="11" height="11" fill="white" transform="translate(11.0273) rotate(70.4337)"/>
</clipPath>
</defs>
</svg>
