<svg width="13" height="12" viewBox="0 0 11 10" fill="none" xmlns="http://www.w3.org/2000/svg">
<path d="M7.23672 1.14412C5.71114 -0.381372 3.22813 -0.381372 1.70254 1.14412C0.177279 2.66993 0.177279 5.15245 1.70254 6.67827C3.06112 8.03643 5.17703 8.18193 6.70163 7.1214C6.73371 7.27319 6.80713 7.41803 6.92519 7.53609L9.14694 9.75768C9.47071 10.0808 9.9939 10.0808 10.316 9.75768C10.6395 9.43427 10.6395 8.91111 10.316 8.58868L8.09427 6.36642C7.97687 6.24936 7.83168 6.17561 7.67988 6.14354C8.74115 4.61871 8.59563 2.50327 7.23672 1.14412ZM6.53528 5.97687C5.3963 7.11578 3.54264 7.11578 2.40398 5.97687C1.26566 4.83796 1.26566 2.98475 2.40398 1.84585C3.54264 0.70727 5.3963 0.70727 6.53528 1.84585C7.67426 2.98475 7.67426 4.83796 6.53528 5.97687Z" fill="#878D91"/>
</svg>
