<svg width="14" height="14" viewBox="0 0 14 14" fill="none" xmlns="http://www.w3.org/2000/svg">
<path d="M4.375 8.5H4.9675L5.1775 8.2975C4.4425 7.4425 4 6.3325 4 5.125C4 2.4325 6.1825 0.25 8.875 0.25C11.5675 0.25 13.75 2.4325 13.75 5.125C13.75 7.8175 11.5675 10 8.875 10C7.6675 10 6.5575 9.5575 5.7025 8.8225L5.5 9.0325V9.625L1.75 13.3675L0.632499 12.25L4.375 8.5V8.5ZM8.875 8.5C10.7425 8.5 12.25 6.9925 12.25 5.125C12.25 3.2575 10.7425 1.75 8.875 1.75C7.0075 1.75 5.5 3.2575 5.5 5.125C5.5 6.9925 7.0075 8.5 8.875 8.5Z" fill="black"/>
</svg>
