<svg width="26" height="26" viewBox="0 0 26 26" fill="none" xmlns="http://www.w3.org/2000/svg">
<path d="M22.3184 25.1758H9.36914C7.79393 25.1758 6.5127 23.8945 6.5127 22.3193V9.37012C6.5127 7.79491 7.79393 6.51367 9.36914 6.51367H22.3184C23.8936 6.51367 25.1748 7.79491 25.1748 9.37012V22.3193C25.1748 23.8945 23.8936 25.1758 22.3184 25.1758ZM9.36914 8.41797C8.84412 8.41797 8.41699 8.8451 8.41699 9.37012V22.3193C8.41699 22.8444 8.84412 23.2715 9.36914 23.2715H22.3184C22.8434 23.2715 23.2705 22.8444 23.2705 22.3193V9.37012C23.2705 8.8451 22.8434 8.41797 22.3184 8.41797H9.36914ZM4.6084 17.5586H3.65625C3.13123 17.5586 2.7041 17.1315 2.7041 16.6064V3.65723C2.7041 3.13221 3.13123 2.70508 3.65625 2.70508H16.6055C17.1305 2.70508 17.5576 3.13221 17.5576 3.65723V4.56177H19.4619V3.65723C19.4619 2.08202 18.1807 0.800781 16.6055 0.800781H3.65625C2.08104 0.800781 0.799805 2.08202 0.799805 3.65723V16.6064C0.799805 18.1817 2.08104 19.4629 3.65625 19.4629H4.6084V17.5586Z" fill="#4BA950"/>
</svg>
