<svg width="172" height="172" viewBox="0 0 172 172" fill="none" xmlns="http://www.w3.org/2000/svg">
<path d="M5.03906 136.391V156.547H86H166.961V136.391H86H5.03906Z" fill="#DFE7F4"/>
<path d="M86 15.4531H5.03906V35.6094H86H166.961V15.4531H86Z" fill="#DFE7F4"/>
<path d="M86 15.4531H166.961V35.6094H86V15.4531Z" fill="#C7CFE1"/>
<path d="M86 136.391H166.961V156.547H86V136.391Z" fill="#C7CFE1"/>
<path d="M86 35.6094H10.0781V136.391H86H161.922V35.6094H86Z" fill="#FF641A"/>
<path d="M86 35.6094H161.922V136.391H86V35.6094Z" fill="#F03800"/>
<path d="M0 131.352V161.586H86H172V131.352H86H0ZM27.2109 151.508H10.0781V141.43H27.2109V151.508ZM54.0859 151.508H37.2891V141.43H54.0859V151.508ZM80.9609 151.508H64.1641V141.43H80.9609V151.508ZM144.789 141.43H161.922V151.508H144.789V141.43ZM117.914 141.43H134.711V151.508H117.914V141.43ZM91.0391 141.43H107.836V151.508H91.0391V141.43Z" fill="#404A80"/>
<path d="M86 10.4141H0V40.6484H86H172V10.4141H86ZM27.2109 30.5703H10.0781V20.4922H27.2109V30.5703ZM54.0859 30.5703H37.2891V20.4922H54.0859V30.5703ZM80.9609 30.5703H64.1641V20.4922H80.9609V30.5703ZM107.836 30.5703H91.0391V20.4922H107.836V30.5703ZM134.711 30.5703H117.914V20.4922H134.711V30.5703ZM161.922 30.5703H144.756V20.4922H161.922V30.5703Z" fill="#404A80"/>
<path d="M107.836 30.5703H91.0391V20.4922H107.836V30.5703ZM134.711 30.5703H117.914V20.4922H134.711V30.5703ZM86 10.4141V40.6484H172V10.4141H86ZM161.922 30.5703H144.756V20.4922H161.922V30.5703Z" fill="#283366"/>
<path d="M172 131.352H86V161.586H172V131.352ZM107.836 151.508H91.0391V141.43H107.836V151.508ZM134.711 151.508H117.914V141.43H134.711V151.508ZM161.922 151.508H144.789V141.43H161.922V151.508Z" fill="#283366"/>
<path d="M86 66.5071L70.8828 56.4297V115.569L86 105.492L115.24 85.9996L86 66.5071Z" fill="#F0F7FF"/>
<path d="M86 66.5078V105.493L115.24 86.0003L86 66.5078Z" fill="#DFE7F4"/>
</svg>
