<svg width="33" height="15" viewBox="0 0 33 15" fill="none" xmlns="http://www.w3.org/2000/svg">
<rect width="33" height="15" rx="2" fill="#4F5355"/>
<path d="M12.392 4.44L10.304 10H9.248L7.152 4.44H8.128L9.776 9.064L11.432 4.44H12.392ZM13.6187 5.008C13.4534 5.008 13.3147 4.952 13.2027 4.84C13.0907 4.728 13.0347 4.58933 13.0347 4.424C13.0347 4.25867 13.0907 4.12 13.2027 4.008C13.3147 3.896 13.4534 3.84 13.6187 3.84C13.7787 3.84 13.9147 3.896 14.0267 4.008C14.1387 4.12 14.1947 4.25867 14.1947 4.424C14.1947 4.58933 14.1387 4.728 14.0267 4.84C13.9147 4.952 13.7787 5.008 13.6187 5.008ZM14.0667 5.592V10H13.1547V5.592H14.0667ZM19.3041 7.688C19.3041 7.85333 19.2934 8.00267 19.2721 8.136H15.9041C15.9307 8.488 16.0614 8.77067 16.2961 8.984C16.5307 9.19733 16.8187 9.304 17.1601 9.304C17.6507 9.304 17.9974 9.09867 18.2001 8.688H19.1841C19.0507 9.09333 18.8081 9.42667 18.4561 9.688C18.1094 9.944 17.6774 10.072 17.1601 10.072C16.7387 10.072 16.3601 9.97867 16.0241 9.792C15.6934 9.6 15.4321 9.33333 15.2401 8.992C15.0534 8.64533 14.9601 8.24533 14.9601 7.792C14.9601 7.33867 15.0507 6.94133 15.2321 6.6C15.4187 6.25333 15.6774 5.98667 16.0081 5.8C16.3441 5.61333 16.7281 5.52 17.1601 5.52C17.5761 5.52 17.9467 5.61067 18.2721 5.792C18.5974 5.97333 18.8507 6.22933 19.0321 6.56C19.2134 6.88533 19.3041 7.26133 19.3041 7.688ZM18.3521 7.4C18.3467 7.064 18.2267 6.79467 17.9921 6.592C17.7574 6.38933 17.4667 6.288 17.1201 6.288C16.8054 6.288 16.5361 6.38933 16.3121 6.592C16.0881 6.78933 15.9547 7.05867 15.9121 7.4H18.3521ZM26.1216 5.592L24.7536 10H23.7936L22.9056 6.744L22.0176 10H21.0576L19.6816 5.592H20.6096L21.5296 9.136L22.4656 5.592H23.4176L24.3136 9.12L25.2256 5.592H26.1216Z" fill="white"/>
</svg>
