<svg width="221" height="73" viewBox="0 0 221 73" fill="none" xmlns="http://www.w3.org/2000/svg">
<g filter="url(#filter0_d_2913:266)">
<rect x="10" y="10" width="201" height="53" rx="26.5" fill="white"/>
</g>
<path d="M70.463 26.905V28.13H72.108V28.907H70.463V30.202H72.318V31H69.483V26.107H72.318V26.905H70.463ZM72.9566 29.047C72.9566 28.655 73.0336 28.3073 73.1876 28.004C73.3463 27.7007 73.5586 27.4673 73.8246 27.304C74.0953 27.1407 74.3963 27.059 74.7276 27.059C75.0169 27.059 75.2689 27.1173 75.4836 27.234C75.7029 27.3507 75.8779 27.4977 76.0086 27.675V27.122H76.9956V31H76.0086V30.433C75.8826 30.615 75.7076 30.7667 75.4836 30.888C75.2643 31.0047 75.0099 31.063 74.7206 31.063C74.3939 31.063 74.0953 30.979 73.8246 30.811C73.5586 30.643 73.3463 30.4073 73.1876 30.104C73.0336 29.796 72.9566 29.4437 72.9566 29.047ZM76.0086 29.061C76.0086 28.823 75.9619 28.62 75.8686 28.452C75.7753 28.2793 75.6493 28.1487 75.4906 28.06C75.3319 27.9667 75.1616 27.92 74.9796 27.92C74.7976 27.92 74.6296 27.9643 74.4756 28.053C74.3216 28.1417 74.1956 28.2723 74.0976 28.445C74.0043 28.613 73.9576 28.8137 73.9576 29.047C73.9576 29.2803 74.0043 29.4857 74.0976 29.663C74.1956 29.8357 74.3216 29.9687 74.4756 30.062C74.6343 30.1553 74.8023 30.202 74.9796 30.202C75.1616 30.202 75.3319 30.1577 75.4906 30.069C75.6493 29.9757 75.7753 29.845 75.8686 29.677C75.9619 29.5043 76.0086 29.299 76.0086 29.061ZM79.4367 31.063C79.1194 31.063 78.8347 31.007 78.5827 30.895C78.3307 30.7783 78.1301 30.622 77.9807 30.426C77.8361 30.23 77.7567 30.013 77.7427 29.775H78.7297C78.7484 29.9243 78.8207 30.048 78.9467 30.146C79.0774 30.244 79.2384 30.293 79.4297 30.293C79.6164 30.293 79.7611 30.2557 79.8637 30.181C79.9711 30.1063 80.0247 30.0107 80.0247 29.894C80.0247 29.768 79.9594 29.6747 79.8287 29.614C79.7027 29.5487 79.4997 29.4787 79.2197 29.404C78.9304 29.334 78.6924 29.2617 78.5057 29.187C78.3237 29.1123 78.1651 28.998 78.0297 28.844C77.8991 28.69 77.8337 28.4823 77.8337 28.221C77.8337 28.0063 77.8944 27.8103 78.0157 27.633C78.1417 27.4557 78.3191 27.3157 78.5477 27.213C78.7811 27.1103 79.0541 27.059 79.3667 27.059C79.8287 27.059 80.1974 27.1757 80.4727 27.409C80.7481 27.6377 80.8997 27.948 80.9277 28.34H79.9897C79.9757 28.186 79.9104 28.0647 79.7937 27.976C79.6817 27.8827 79.5301 27.836 79.3387 27.836C79.1614 27.836 79.0237 27.8687 78.9257 27.934C78.8324 27.9993 78.7857 28.0903 78.7857 28.207C78.7857 28.3377 78.8511 28.438 78.9817 28.508C79.1124 28.5733 79.3154 28.641 79.5907 28.711C79.8707 28.781 80.1017 28.8533 80.2837 28.928C80.4657 29.0027 80.6221 29.1193 80.7527 29.278C80.8881 29.432 80.9581 29.6373 80.9627 29.894C80.9627 30.118 80.8997 30.3187 80.7737 30.496C80.6524 30.6733 80.4751 30.8133 80.2417 30.916C80.0131 31.014 79.7447 31.063 79.4367 31.063ZM85.4772 27.122L83.0762 32.834H82.0332L82.8732 30.902L81.3192 27.122H82.4182L83.4192 29.831L84.4342 27.122H85.4772ZM87.0765 29.971L86.2575 31.938H85.6275L86.0825 29.971H87.0765ZM93.0908 31.861L92.3488 30.972C92.1434 31.0233 91.9334 31.049 91.7188 31.049C91.2614 31.049 90.8414 30.9417 90.4588 30.727C90.0761 30.5123 89.7728 30.216 89.5488 29.838C89.3248 29.4553 89.2128 29.0237 89.2128 28.543C89.2128 28.067 89.3248 27.64 89.5488 27.262C89.7728 26.8793 90.0761 26.5807 90.4588 26.366C90.8414 26.1513 91.2614 26.044 91.7188 26.044C92.1808 26.044 92.6008 26.1513 92.9788 26.366C93.3614 26.5807 93.6624 26.8793 93.8818 27.262C94.1058 27.64 94.2178 28.067 94.2178 28.543C94.2178 28.977 94.1244 29.3737 93.9378 29.733C93.7558 30.0877 93.5061 30.377 93.1888 30.601L94.3088 31.861H93.0908ZM90.2208 28.543C90.2208 28.8697 90.2838 29.1567 90.4098 29.404C90.5358 29.6513 90.7108 29.8427 90.9348 29.978C91.1634 30.1087 91.4248 30.174 91.7188 30.174C92.0128 30.174 92.2718 30.1087 92.4958 29.978C92.7198 29.8427 92.8948 29.6513 93.0208 29.404C93.1468 29.1567 93.2098 28.8697 93.2098 28.543C93.2098 28.2163 93.1468 27.9317 93.0208 27.689C92.8948 27.4417 92.7198 27.2527 92.4958 27.122C92.2718 26.9913 92.0128 26.926 91.7188 26.926C91.4248 26.926 91.1634 26.9913 90.9348 27.122C90.7108 27.2527 90.5358 27.4417 90.4098 27.689C90.2838 27.9317 90.2208 28.2163 90.2208 28.543ZM98.6215 27.122V31H97.6345V30.51C97.5085 30.678 97.3429 30.811 97.1375 30.909C96.9369 31.0023 96.7175 31.049 96.4795 31.049C96.1762 31.049 95.9079 30.986 95.6745 30.86C95.4412 30.7293 95.2569 30.5403 95.1215 30.293C94.9909 30.041 94.9255 29.7423 94.9255 29.397V27.122H95.9055V29.257C95.9055 29.565 95.9825 29.803 96.1365 29.971C96.2905 30.1343 96.5005 30.216 96.7665 30.216C97.0372 30.216 97.2495 30.1343 97.4035 29.971C97.5575 29.803 97.6345 29.565 97.6345 29.257V27.122H98.6215ZM100.085 26.66C99.9128 26.66 99.7681 26.6063 99.6515 26.499C99.5395 26.387 99.4835 26.2493 99.4835 26.086C99.4835 25.9227 99.5395 25.7873 99.6515 25.68C99.7681 25.568 99.9128 25.512 100.085 25.512C100.258 25.512 100.4 25.568 100.512 25.68C100.629 25.7873 100.687 25.9227 100.687 26.086C100.687 26.2493 100.629 26.387 100.512 26.499C100.4 26.6063 100.258 26.66 100.085 26.66ZM100.568 27.122V31H99.5885V27.122H100.568ZM101.285 29.061C101.285 28.6597 101.366 28.3097 101.53 28.011C101.693 27.7077 101.919 27.4743 102.209 27.311C102.498 27.143 102.829 27.059 103.203 27.059C103.683 27.059 104.08 27.1803 104.393 27.423C104.71 27.661 104.922 27.997 105.03 28.431H103.973C103.917 28.263 103.821 28.1323 103.686 28.039C103.555 27.941 103.392 27.892 103.196 27.892C102.916 27.892 102.694 27.9947 102.531 28.2C102.367 28.4007 102.286 28.6877 102.286 29.061C102.286 29.4297 102.367 29.7167 102.531 29.922C102.694 30.1227 102.916 30.223 103.196 30.223C103.592 30.223 103.851 30.0457 103.973 29.691H105.03C104.922 30.111 104.71 30.4447 104.393 30.692C104.075 30.9393 103.679 31.063 103.203 31.063C102.829 31.063 102.498 30.9813 102.209 30.818C101.919 30.65 101.693 30.4167 101.53 30.118C101.366 29.8147 101.285 29.4623 101.285 29.061ZM108.044 31L106.728 29.348V31H105.748V25.82H106.728V28.767L108.03 27.122H109.304L107.596 29.068L109.318 31H108.044ZM110.907 29.971L110.088 31.938H109.458L109.913 29.971H110.907ZM113.029 29.047C113.029 28.655 113.106 28.3073 113.26 28.004C113.419 27.7007 113.631 27.4673 113.897 27.304C114.168 27.1407 114.469 27.059 114.8 27.059C115.089 27.059 115.341 27.1173 115.556 27.234C115.775 27.3507 115.95 27.4977 116.081 27.675V27.122H117.068V31H116.081V30.433C115.955 30.615 115.78 30.7667 115.556 30.888C115.337 31.0047 115.082 31.063 114.793 31.063C114.466 31.063 114.168 30.979 113.897 30.811C113.631 30.643 113.419 30.4073 113.26 30.104C113.106 29.796 113.029 29.4437 113.029 29.047ZM116.081 29.061C116.081 28.823 116.034 28.62 115.941 28.452C115.848 28.2793 115.722 28.1487 115.563 28.06C115.404 27.9667 115.234 27.92 115.052 27.92C114.87 27.92 114.702 27.9643 114.548 28.053C114.394 28.1417 114.268 28.2723 114.17 28.445C114.077 28.613 114.03 28.8137 114.03 29.047C114.03 29.2803 114.077 29.4857 114.17 29.663C114.268 29.8357 114.394 29.9687 114.548 30.062C114.707 30.1553 114.875 30.202 115.052 30.202C115.234 30.202 115.404 30.1577 115.563 30.069C115.722 29.9757 115.848 29.845 115.941 29.677C116.034 29.5043 116.081 29.299 116.081 29.061ZM120.174 27.066C120.636 27.066 121.009 27.213 121.294 27.507C121.579 27.7963 121.721 28.2023 121.721 28.725V31H120.741V28.858C120.741 28.55 120.664 28.3143 120.51 28.151C120.356 27.983 120.146 27.899 119.88 27.899C119.609 27.899 119.395 27.983 119.236 28.151C119.082 28.3143 119.005 28.55 119.005 28.858V31H118.025V27.122H119.005V27.605C119.136 27.437 119.301 27.3063 119.502 27.213C119.707 27.115 119.931 27.066 120.174 27.066ZM122.401 29.047C122.401 28.655 122.478 28.3073 122.632 28.004C122.791 27.7007 123.005 27.4673 123.276 27.304C123.547 27.1407 123.848 27.059 124.179 27.059C124.431 27.059 124.671 27.115 124.9 27.227C125.129 27.3343 125.311 27.479 125.446 27.661V25.82H126.44V31H125.446V30.426C125.325 30.6173 125.154 30.7713 124.935 30.888C124.716 31.0047 124.461 31.063 124.172 31.063C123.845 31.063 123.547 30.979 123.276 30.811C123.005 30.643 122.791 30.4073 122.632 30.104C122.478 29.796 122.401 29.4437 122.401 29.047ZM125.453 29.061C125.453 28.823 125.406 28.62 125.313 28.452C125.22 28.2793 125.094 28.1487 124.935 28.06C124.776 27.9667 124.606 27.92 124.424 27.92C124.242 27.92 124.074 27.9643 123.92 28.053C123.766 28.1417 123.64 28.2723 123.542 28.445C123.449 28.613 123.402 28.8137 123.402 29.047C123.402 29.2803 123.449 29.4857 123.542 29.663C123.64 29.8357 123.766 29.9687 123.92 30.062C124.079 30.1553 124.247 30.202 124.424 30.202C124.606 30.202 124.776 30.1577 124.935 30.069C125.094 29.9757 125.22 29.845 125.313 29.677C125.406 29.5043 125.453 29.299 125.453 29.061ZM132.061 30.069H130.115L129.793 31H128.764L130.521 26.107H131.662L133.419 31H132.383L132.061 30.069ZM131.795 29.285L131.088 27.241L130.381 29.285H131.795ZM135.056 27.689C135.182 27.5023 135.354 27.3507 135.574 27.234C135.798 27.1173 136.052 27.059 136.337 27.059C136.668 27.059 136.967 27.1407 137.233 27.304C137.503 27.4673 137.716 27.7007 137.87 28.004C138.028 28.3027 138.108 28.6503 138.108 29.047C138.108 29.4437 138.028 29.796 137.87 30.104C137.716 30.4073 137.503 30.643 137.233 30.811C136.967 30.979 136.668 31.063 136.337 31.063C136.047 31.063 135.793 31.007 135.574 30.895C135.359 30.7783 135.186 30.629 135.056 30.447V31H134.076V25.82H135.056V27.689ZM137.107 29.047C137.107 28.8137 137.058 28.613 136.96 28.445C136.866 28.2723 136.74 28.1417 136.582 28.053C136.428 27.9643 136.26 27.92 136.078 27.92C135.9 27.92 135.732 27.9667 135.574 28.06C135.42 28.1487 135.294 28.2793 135.196 28.452C135.102 28.6247 135.056 28.8277 135.056 29.061C135.056 29.2943 135.102 29.4973 135.196 29.67C135.294 29.8427 135.42 29.9757 135.574 30.069C135.732 30.1577 135.9 30.202 136.078 30.202C136.26 30.202 136.428 30.1553 136.582 30.062C136.74 29.9687 136.866 29.8357 136.96 29.663C137.058 29.4903 137.107 29.285 137.107 29.047ZM140.304 31.063C139.987 31.063 139.702 31.007 139.45 30.895C139.198 30.7783 138.997 30.622 138.848 30.426C138.703 30.23 138.624 30.013 138.61 29.775H139.597C139.616 29.9243 139.688 30.048 139.814 30.146C139.945 30.244 140.106 30.293 140.297 30.293C140.484 30.293 140.628 30.2557 140.731 30.181C140.838 30.1063 140.892 30.0107 140.892 29.894C140.892 29.768 140.827 29.6747 140.696 29.614C140.57 29.5487 140.367 29.4787 140.087 29.404C139.798 29.334 139.56 29.2617 139.373 29.187C139.191 29.1123 139.032 28.998 138.897 28.844C138.766 28.69 138.701 28.4823 138.701 28.221C138.701 28.0063 138.762 27.8103 138.883 27.633C139.009 27.4557 139.186 27.3157 139.415 27.213C139.648 27.1103 139.921 27.059 140.234 27.059C140.696 27.059 141.065 27.1757 141.34 27.409C141.615 27.6377 141.767 27.948 141.795 28.34H140.857C140.843 28.186 140.778 28.0647 140.661 27.976C140.549 27.8827 140.397 27.836 140.206 27.836C140.029 27.836 139.891 27.8687 139.793 27.934C139.7 27.9993 139.653 28.0903 139.653 28.207C139.653 28.3377 139.718 28.438 139.849 28.508C139.98 28.5733 140.183 28.641 140.458 28.711C140.738 28.781 140.969 28.8533 141.151 28.928C141.333 29.0027 141.489 29.1193 141.62 29.278C141.755 29.432 141.825 29.6373 141.83 29.894C141.83 30.118 141.767 30.3187 141.641 30.496C141.52 30.6733 141.342 30.8133 141.109 30.916C140.88 31.014 140.612 31.063 140.304 31.063ZM144.356 31.063C143.983 31.063 143.647 30.9813 143.348 30.818C143.05 30.65 142.814 30.4143 142.641 30.111C142.473 29.8077 142.389 29.4577 142.389 29.061C142.389 28.6643 142.476 28.3143 142.648 28.011C142.826 27.7077 143.066 27.4743 143.369 27.311C143.673 27.143 144.011 27.059 144.384 27.059C144.758 27.059 145.096 27.143 145.399 27.311C145.703 27.4743 145.941 27.7077 146.113 28.011C146.291 28.3143 146.379 28.6643 146.379 29.061C146.379 29.4577 146.288 29.8077 146.106 30.111C145.929 30.4143 145.686 30.65 145.378 30.818C145.075 30.9813 144.734 31.063 144.356 31.063ZM144.356 30.209C144.534 30.209 144.699 30.167 144.853 30.083C145.012 29.9943 145.138 29.8637 145.231 29.691C145.325 29.5183 145.371 29.3083 145.371 29.061C145.371 28.6923 145.273 28.41 145.077 28.214C144.886 28.0133 144.65 27.913 144.37 27.913C144.09 27.913 143.855 28.0133 143.663 28.214C143.477 28.41 143.383 28.6923 143.383 29.061C143.383 29.4297 143.474 29.7143 143.656 29.915C143.843 30.111 144.076 30.209 144.356 30.209ZM148.078 25.82V31H147.098V25.82H148.078ZM152.707 27.122V31H151.72V30.51C151.594 30.678 151.429 30.811 151.223 30.909C151.023 31.0023 150.803 31.049 150.565 31.049C150.262 31.049 149.994 30.986 149.76 30.86C149.527 30.7293 149.343 30.5403 149.207 30.293C149.077 30.041 149.011 29.7423 149.011 29.397V27.122H149.991V29.257C149.991 29.565 150.068 29.803 150.222 29.971C150.376 30.1343 150.586 30.216 150.852 30.216C151.123 30.216 151.335 30.1343 151.489 29.971C151.643 29.803 151.72 29.565 151.72 29.257V27.122H152.707ZM154.815 27.927V29.803C154.815 29.9337 154.846 30.0293 154.906 30.09C154.972 30.146 155.079 30.174 155.228 30.174H155.683V31H155.067C154.241 31 153.828 30.5987 153.828 29.796V27.927H153.366V27.122H153.828V26.163H154.815V27.122H155.683V27.927H154.815ZM159.993 28.977C159.993 29.117 159.984 29.243 159.965 29.355H157.13C157.154 29.635 157.252 29.8543 157.424 30.013C157.597 30.1717 157.809 30.251 158.061 30.251C158.425 30.251 158.684 30.0947 158.838 29.782H159.895C159.783 30.1553 159.569 30.4633 159.251 30.706C158.934 30.944 158.544 31.063 158.082 31.063C157.709 31.063 157.373 30.9813 157.074 30.818C156.78 30.65 156.549 30.4143 156.381 30.111C156.218 29.8077 156.136 29.4577 156.136 29.061C156.136 28.6597 156.218 28.3073 156.381 28.004C156.545 27.7007 156.773 27.4673 157.067 27.304C157.361 27.1407 157.7 27.059 158.082 27.059C158.451 27.059 158.78 27.1383 159.069 27.297C159.363 27.4557 159.59 27.682 159.748 27.976C159.912 28.2653 159.993 28.599 159.993 28.977ZM158.978 28.697C158.974 28.445 158.883 28.2443 158.705 28.095C158.528 27.941 158.311 27.864 158.054 27.864C157.812 27.864 157.606 27.9387 157.438 28.088C157.275 28.2327 157.175 28.4357 157.137 28.697H158.978ZM163.357 26.905V28.13H165.002V28.907H163.357V30.202H165.212V31H162.377V26.107H165.212V26.905H163.357ZM170.918 27.066C171.394 27.066 171.777 27.213 172.066 27.507C172.36 27.7963 172.507 28.2023 172.507 28.725V31H171.527V28.858C171.527 28.5547 171.45 28.3237 171.296 28.165C171.142 28.0017 170.932 27.92 170.666 27.92C170.4 27.92 170.188 28.0017 170.029 28.165C169.875 28.3237 169.798 28.5547 169.798 28.858V31H168.818V28.858C168.818 28.5547 168.741 28.3237 168.587 28.165C168.433 28.0017 168.223 27.92 167.957 27.92C167.686 27.92 167.472 28.0017 167.313 28.165C167.159 28.3237 167.082 28.5547 167.082 28.858V31H166.102V27.122H167.082V27.591C167.208 27.4277 167.369 27.2993 167.565 27.206C167.766 27.1127 167.985 27.066 168.223 27.066C168.526 27.066 168.797 27.1313 169.035 27.262C169.273 27.388 169.457 27.57 169.588 27.808C169.714 27.584 169.896 27.4043 170.134 27.269C170.377 27.1337 170.638 27.066 170.918 27.066ZM173.185 29.047C173.185 28.655 173.262 28.3073 173.416 28.004C173.575 27.7007 173.787 27.4673 174.053 27.304C174.324 27.1407 174.625 27.059 174.956 27.059C175.245 27.059 175.497 27.1173 175.712 27.234C175.931 27.3507 176.106 27.4977 176.237 27.675V27.122H177.224V31H176.237V30.433C176.111 30.615 175.936 30.7667 175.712 30.888C175.493 31.0047 175.238 31.063 174.949 31.063C174.622 31.063 174.324 30.979 174.053 30.811C173.787 30.643 173.575 30.4073 173.416 30.104C173.262 29.796 173.185 29.4437 173.185 29.047ZM176.237 29.061C176.237 28.823 176.19 28.62 176.097 28.452C176.004 28.2793 175.878 28.1487 175.719 28.06C175.56 27.9667 175.39 27.92 175.208 27.92C175.026 27.92 174.858 27.9643 174.704 28.053C174.55 28.1417 174.424 28.2723 174.326 28.445C174.233 28.613 174.186 28.8137 174.186 29.047C174.186 29.2803 174.233 29.4857 174.326 29.663C174.424 29.8357 174.55 29.9687 174.704 30.062C174.863 30.1553 175.031 30.202 175.208 30.202C175.39 30.202 175.56 30.1577 175.719 30.069C175.878 29.9757 176.004 29.845 176.097 29.677C176.19 29.5043 176.237 29.299 176.237 29.061ZM178.678 26.66C178.506 26.66 178.361 26.6063 178.244 26.499C178.132 26.387 178.076 26.2493 178.076 26.086C178.076 25.9227 178.132 25.7873 178.244 25.68C178.361 25.568 178.506 25.512 178.678 25.512C178.851 25.512 178.993 25.568 179.105 25.68C179.222 25.7873 179.28 25.9227 179.28 26.086C179.28 26.2493 179.222 26.387 179.105 26.499C178.993 26.6063 178.851 26.66 178.678 26.66ZM179.161 27.122V31H178.181V27.122H179.161ZM181.109 25.82V31H180.129V25.82H181.109ZM73.046 43.626C73.046 43.8873 72.983 44.1323 72.857 44.361C72.7357 44.5897 72.542 44.774 72.276 44.914C72.0147 45.054 71.6833 45.124 71.282 45.124H70.463V47H69.483V42.114H71.282C71.66 42.114 71.982 42.1793 72.248 42.31C72.514 42.4407 72.7123 42.6203 72.843 42.849C72.9783 43.0777 73.046 43.3367 73.046 43.626ZM71.24 44.333C71.5107 44.333 71.7113 44.2723 71.842 44.151C71.9727 44.025 72.038 43.85 72.038 43.626C72.038 43.15 71.772 42.912 71.24 42.912H70.463V44.333H71.24ZM74.7218 43.724C74.8478 43.5187 75.0111 43.3577 75.2118 43.241C75.4171 43.1243 75.6505 43.066 75.9118 43.066V44.095H75.6528C75.3448 44.095 75.1115 44.1673 74.9528 44.312C74.7988 44.4567 74.7218 44.7087 74.7218 45.068V47H73.7418V43.122H74.7218V43.724ZM77.0689 42.66C76.8962 42.66 76.7515 42.6063 76.6349 42.499C76.5229 42.387 76.4669 42.2493 76.4669 42.086C76.4669 41.9227 76.5229 41.7873 76.6349 41.68C76.7515 41.568 76.8962 41.512 77.0689 41.512C77.2415 41.512 77.3839 41.568 77.4959 41.68C77.6125 41.7873 77.6709 41.9227 77.6709 42.086C77.6709 42.2493 77.6125 42.387 77.4959 42.499C77.3839 42.6063 77.2415 42.66 77.0689 42.66ZM77.5519 43.122V47H76.5719V43.122H77.5519ZM80.1371 46.097L81.1171 43.122H82.1601L80.7251 47H79.5351L78.1071 43.122H79.1571L80.1371 46.097ZM82.4585 45.047C82.4585 44.655 82.5355 44.3073 82.6895 44.004C82.8482 43.7007 83.0605 43.4673 83.3265 43.304C83.5972 43.1407 83.8982 43.059 84.2295 43.059C84.5189 43.059 84.7709 43.1173 84.9855 43.234C85.2049 43.3507 85.3799 43.4977 85.5105 43.675V43.122H86.4975V47H85.5105V46.433C85.3845 46.615 85.2095 46.7667 84.9855 46.888C84.7662 47.0047 84.5119 47.063 84.2225 47.063C83.8959 47.063 83.5972 46.979 83.3265 46.811C83.0605 46.643 82.8482 46.4073 82.6895 46.104C82.5355 45.796 82.4585 45.4437 82.4585 45.047ZM85.5105 45.061C85.5105 44.823 85.4639 44.62 85.3705 44.452C85.2772 44.2793 85.1512 44.1487 84.9925 44.06C84.8339 43.9667 84.6635 43.92 84.4815 43.92C84.2995 43.92 84.1315 43.9643 83.9775 44.053C83.8235 44.1417 83.6975 44.2723 83.5995 44.445C83.5062 44.613 83.4595 44.8137 83.4595 45.047C83.4595 45.2803 83.5062 45.4857 83.5995 45.663C83.6975 45.8357 83.8235 45.9687 83.9775 46.062C84.1362 46.1553 84.3042 46.202 84.4815 46.202C84.6635 46.202 84.8339 46.1577 84.9925 46.069C85.1512 45.9757 85.2772 45.845 85.3705 45.677C85.4639 45.5043 85.5105 45.299 85.5105 45.061ZM87.2027 45.061C87.2027 44.6597 87.2843 44.3097 87.4477 44.011C87.611 43.7077 87.8373 43.4743 88.1267 43.311C88.416 43.143 88.7473 43.059 89.1207 43.059C89.6013 43.059 89.998 43.1803 90.3107 43.423C90.628 43.661 90.8403 43.997 90.9477 44.431H89.8907C89.8347 44.263 89.739 44.1323 89.6037 44.039C89.473 43.941 89.3097 43.892 89.1137 43.892C88.8337 43.892 88.612 43.9947 88.4487 44.2C88.2853 44.4007 88.2037 44.6877 88.2037 45.061C88.2037 45.4297 88.2853 45.7167 88.4487 45.922C88.612 46.1227 88.8337 46.223 89.1137 46.223C89.5103 46.223 89.7693 46.0457 89.8907 45.691H90.9477C90.8403 46.111 90.628 46.4447 90.3107 46.692C89.9933 46.9393 89.5967 47.063 89.1207 47.063C88.7473 47.063 88.416 46.9813 88.1267 46.818C87.8373 46.65 87.611 46.4167 87.4477 46.118C87.2843 45.8147 87.2027 45.4623 87.2027 45.061ZM95.3756 43.122L92.9746 48.834H91.9316L92.7716 46.902L91.2176 43.122H92.3166L93.3176 45.831L94.3326 43.122H95.3756ZM98.0689 42.66C97.8962 42.66 97.7515 42.6063 97.6349 42.499C97.5229 42.387 97.4669 42.2493 97.4669 42.086C97.4669 41.9227 97.5229 41.7873 97.6349 41.68C97.7515 41.568 97.8962 41.512 98.0689 41.512C98.2415 41.512 98.3839 41.568 98.4959 41.68C98.6125 41.7873 98.6709 41.9227 98.6709 42.086C98.6709 42.2493 98.6125 42.387 98.4959 42.499C98.3839 42.6063 98.2415 42.66 98.0689 42.66ZM98.5519 43.122V47H97.5719V43.122H98.5519ZM101.669 43.066C102.131 43.066 102.504 43.213 102.789 43.507C103.074 43.7963 103.216 44.2023 103.216 44.725V47H102.236V44.858C102.236 44.55 102.159 44.3143 102.005 44.151C101.851 43.983 101.641 43.899 101.375 43.899C101.104 43.899 100.89 43.983 100.731 44.151C100.577 44.3143 100.5 44.55 100.5 44.858V47H99.5201V43.122H100.5V43.605C100.631 43.437 100.796 43.3063 100.997 43.213C101.202 43.115 101.426 43.066 101.669 43.066ZM106.796 41.82V47H105.816V41.82H106.796ZM111.369 44.977C111.369 45.117 111.36 45.243 111.341 45.355H108.506C108.53 45.635 108.628 45.8543 108.8 46.013C108.973 46.1717 109.185 46.251 109.437 46.251C109.801 46.251 110.06 46.0947 110.214 45.782H111.271C111.159 46.1553 110.945 46.4633 110.627 46.706C110.31 46.944 109.92 47.063 109.458 47.063C109.085 47.063 108.749 46.9813 108.45 46.818C108.156 46.65 107.925 46.4143 107.757 46.111C107.594 45.8077 107.512 45.4577 107.512 45.061C107.512 44.6597 107.594 44.3073 107.757 44.004C107.921 43.7007 108.149 43.4673 108.443 43.304C108.737 43.1407 109.076 43.059 109.458 43.059C109.827 43.059 110.156 43.1383 110.445 43.297C110.739 43.4557 110.966 43.682 111.124 43.976C111.288 44.2653 111.369 44.599 111.369 44.977ZM110.354 44.697C110.35 44.445 110.259 44.2443 110.081 44.095C109.904 43.941 109.687 43.864 109.43 43.864C109.188 43.864 108.982 43.9387 108.814 44.088C108.651 44.2327 108.551 44.4357 108.513 44.697H110.354ZM113.569 47.063C113.251 47.063 112.967 47.007 112.715 46.895C112.463 46.7783 112.262 46.622 112.113 46.426C111.968 46.23 111.889 46.013 111.875 45.775H112.862C112.88 45.9243 112.953 46.048 113.079 46.146C113.209 46.244 113.37 46.293 113.562 46.293C113.748 46.293 113.893 46.2557 113.996 46.181C114.103 46.1063 114.157 46.0107 114.157 45.894C114.157 45.768 114.091 45.6747 113.961 45.614C113.835 45.5487 113.632 45.4787 113.352 45.404C113.062 45.334 112.824 45.2617 112.638 45.187C112.456 45.1123 112.297 44.998 112.162 44.844C112.031 44.69 111.966 44.4823 111.966 44.221C111.966 44.0063 112.026 43.8103 112.148 43.633C112.274 43.4557 112.451 43.3157 112.68 43.213C112.913 43.1103 113.186 43.059 113.499 43.059C113.961 43.059 114.329 43.1757 114.605 43.409C114.88 43.6377 115.032 43.948 115.06 44.34H114.122C114.108 44.186 114.042 44.0647 113.926 43.976C113.814 43.8827 113.662 43.836 113.471 43.836C113.293 43.836 113.156 43.8687 113.058 43.934C112.964 43.9993 112.918 44.0903 112.918 44.207C112.918 44.3377 112.983 44.438 113.114 44.508C113.244 44.5733 113.447 44.641 113.723 44.711C114.003 44.781 114.234 44.8533 114.416 44.928C114.598 45.0027 114.754 45.1193 114.885 45.278C115.02 45.432 115.09 45.6373 115.095 45.894C115.095 46.118 115.032 46.3187 114.906 46.496C114.784 46.6733 114.607 46.8133 114.374 46.916C114.145 47.014 113.877 47.063 113.569 47.063ZM117.383 47.063C117.066 47.063 116.781 47.007 116.529 46.895C116.277 46.7783 116.076 46.622 115.927 46.426C115.782 46.23 115.703 46.013 115.689 45.775H116.676C116.695 45.9243 116.767 46.048 116.893 46.146C117.024 46.244 117.185 46.293 117.376 46.293C117.563 46.293 117.707 46.2557 117.81 46.181C117.917 46.1063 117.971 46.0107 117.971 45.894C117.971 45.768 117.906 45.6747 117.775 45.614C117.649 45.5487 117.446 45.4787 117.166 45.404C116.877 45.334 116.639 45.2617 116.452 45.187C116.27 45.1123 116.111 44.998 115.976 44.844C115.845 44.69 115.78 44.4823 115.78 44.221C115.78 44.0063 115.841 43.8103 115.962 43.633C116.088 43.4557 116.265 43.3157 116.494 43.213C116.727 43.1103 117 43.059 117.313 43.059C117.775 43.059 118.144 43.1757 118.419 43.409C118.694 43.6377 118.846 43.948 118.874 44.34H117.936C117.922 44.186 117.857 44.0647 117.74 43.976C117.628 43.8827 117.476 43.836 117.285 43.836C117.108 43.836 116.97 43.8687 116.872 43.934C116.779 43.9993 116.732 44.0903 116.732 44.207C116.732 44.3377 116.797 44.438 116.928 44.508C117.059 44.5733 117.262 44.641 117.537 44.711C117.817 44.781 118.048 44.8533 118.23 44.928C118.412 45.0027 118.568 45.1193 118.699 45.278C118.834 45.432 118.904 45.6373 118.909 45.894C118.909 46.118 118.846 46.3187 118.72 46.496C118.599 46.6733 118.421 46.8133 118.188 46.916C117.959 47.014 117.691 47.063 117.383 47.063ZM122.522 43.927V45.803C122.522 45.9337 122.553 46.0293 122.613 46.09C122.679 46.146 122.786 46.174 122.935 46.174H123.39V47H122.774C121.948 47 121.535 46.5987 121.535 45.796V43.927H121.073V43.122H121.535V42.163H122.522V43.122H123.39V43.927H122.522ZM126.279 43.066C126.573 43.066 126.835 43.1313 127.063 43.262C127.292 43.388 127.469 43.577 127.595 43.829C127.726 44.0763 127.791 44.375 127.791 44.725V47H126.811V44.858C126.811 44.55 126.734 44.3143 126.58 44.151C126.426 43.983 126.216 43.899 125.95 43.899C125.68 43.899 125.465 43.983 125.306 44.151C125.152 44.3143 125.075 44.55 125.075 44.858V47H124.095V41.82H125.075V43.605C125.201 43.437 125.369 43.3063 125.579 43.213C125.789 43.115 126.023 43.066 126.279 43.066ZM128.471 45.047C128.471 44.655 128.548 44.3073 128.702 44.004C128.861 43.7007 129.073 43.4673 129.339 43.304C129.61 43.1407 129.911 43.059 130.242 43.059C130.532 43.059 130.784 43.1173 130.998 43.234C131.218 43.3507 131.393 43.4977 131.523 43.675V43.122H132.51V47H131.523V46.433C131.397 46.615 131.222 46.7667 130.998 46.888C130.779 47.0047 130.525 47.063 130.235 47.063C129.909 47.063 129.61 46.979 129.339 46.811C129.073 46.643 128.861 46.4073 128.702 46.104C128.548 45.796 128.471 45.4437 128.471 45.047ZM131.523 45.061C131.523 44.823 131.477 44.62 131.383 44.452C131.29 44.2793 131.164 44.1487 131.005 44.06C130.847 43.9667 130.676 43.92 130.494 43.92C130.312 43.92 130.144 43.9643 129.99 44.053C129.836 44.1417 129.71 44.2723 129.612 44.445C129.519 44.613 129.472 44.8137 129.472 45.047C129.472 45.2803 129.519 45.4857 129.612 45.663C129.71 45.8357 129.836 45.9687 129.99 46.062C130.149 46.1553 130.317 46.202 130.494 46.202C130.676 46.202 130.847 46.1577 131.005 46.069C131.164 45.9757 131.29 45.845 131.383 45.677C131.477 45.5043 131.523 45.299 131.523 45.061ZM135.616 43.066C136.078 43.066 136.452 43.213 136.736 43.507C137.021 43.7963 137.163 44.2023 137.163 44.725V47H136.183V44.858C136.183 44.55 136.106 44.3143 135.952 44.151C135.798 43.983 135.588 43.899 135.322 43.899C135.052 43.899 134.837 43.983 134.678 44.151C134.524 44.3143 134.447 44.55 134.447 44.858V47H133.467V43.122H134.447V43.605C134.578 43.437 134.744 43.3063 134.944 43.213C135.15 43.115 135.374 43.066 135.616 43.066Z" fill="#333333"/>
<g filter="url(#filter1_d_2913:266)">
<circle cx="36.5" cy="36.5" r="26.5" fill="#4BA950"/>
</g>
<path d="M36.5005 10C36.0127 10 35.6172 10.3955 35.6172 10.8833V16.1833C35.6172 16.6712 36.0127 17.0667 36.5005 17.0667C36.9883 17.0667 37.3839 16.6712 37.3839 16.1833V10.8833C37.3839 10.3955 36.9883 10 36.5005 10Z" fill="white" fill-opacity="0.1"/>
<path d="M33.0754 11.9891L32.9217 11.1191C32.837 10.6385 32.3789 10.3175 31.8984 10.4022C31.4178 10.4869 31.0968 10.945 31.1815 11.4256L31.3352 12.2957C31.4098 12.7175 31.7761 13.025 32.2044 13.0253C32.256 13.0252 32.3073 13.0208 32.3581 13.012H32.3582C32.8388 12.9276 33.1599 12.4697 33.0754 11.9891Z" fill="white" fill-opacity="0.1"/>
<path d="M28.8691 12.9564L28.567 12.126C28.5633 12.1152 28.5594 12.1045 28.5553 12.0938C28.3795 11.6387 27.8682 11.4122 27.413 11.588C26.9579 11.7638 26.7314 12.2751 26.9072 12.7302L27.2084 13.5597C27.3352 13.909 27.6671 14.1418 28.0388 14.1418C28.1419 14.1418 28.2443 14.1238 28.3411 14.0886C28.7995 13.9217 29.0359 13.4148 28.8691 12.9564Z" fill="white" fill-opacity="0.1"/>
<path d="M21.2763 16.9853L20.7083 16.3086C20.3965 15.9523 19.8592 15.9052 19.4902 16.2019C19.1099 16.5075 19.0494 17.0634 19.355 17.4437L19.923 18.1203C20.0907 18.3206 20.3384 18.4364 20.5996 18.4366C20.8074 18.4366 21.0086 18.3634 21.1677 18.2298C21.5414 17.9161 21.59 17.3589 21.2763 16.9853Z" fill="white" fill-opacity="0.1"/>
<path d="M18.1212 19.9231L17.4445 19.3552C17.0755 19.0586 16.5382 19.1056 16.2264 19.4619C15.9051 19.8291 15.9423 20.3871 16.3095 20.7084L16.9861 21.2764C17.145 21.4098 17.3457 21.4829 17.5532 21.4831C17.8143 21.4831 18.0621 21.3676 18.2299 21.1676C18.5436 20.7939 18.4948 20.2367 18.1212 19.9231Z" fill="white" fill-opacity="0.1"/>
<path d="M13.5586 27.21L12.7291 26.9088C12.7185 26.9047 12.7077 26.9007 12.6969 26.8971C12.2354 26.7391 11.7331 26.9853 11.5752 27.4469C11.4172 27.9084 11.6634 28.4107 12.1249 28.5686L12.9553 28.8707C13.0518 28.9061 13.1537 28.9243 13.2565 28.9246C13.6303 28.9259 13.9644 28.6919 14.0909 28.3401C14.256 27.8811 14.0177 27.3751 13.5586 27.21Z" fill="white" fill-opacity="0.1"/>
<path d="M12.2976 31.3353L11.4275 31.1816C10.947 31.0969 10.4889 31.4179 10.4042 31.8984C10.3195 32.379 10.6405 32.8371 11.121 32.9218L11.9911 33.0755C12.0419 33.0842 12.0932 33.0886 12.1448 33.0887C12.574 33.089 12.9412 32.7806 13.0153 32.3578C13.0995 31.8772 12.7781 31.4195 12.2976 31.3353Z" fill="white" fill-opacity="0.1"/>
<path d="M13.0111 40.6413C12.9264 40.1608 12.4683 39.8398 11.9878 39.9245L11.1177 40.0782C10.6952 40.1522 10.3871 40.519 10.3867 40.9478C10.3865 41.4357 10.7817 41.8314 11.2696 41.8316C11.3214 41.8315 11.3732 41.8271 11.4242 41.8184L12.2943 41.6647C12.7748 41.58 13.0958 41.1219 13.0111 40.6413Z" fill="white" fill-opacity="0.1"/>
<path d="M14.0873 44.6578C13.9207 44.1993 13.4139 43.9625 12.9553 44.1291L12.125 44.4312C11.7754 44.5581 11.5427 44.8904 11.543 45.2624C11.5434 45.7502 11.9391 46.1454 12.4271 46.1449C12.5301 46.1447 12.6323 46.1265 12.7292 46.091L13.5586 45.7898C14.0172 45.6232 14.2539 45.1164 14.0873 44.6578Z" fill="white" fill-opacity="0.1"/>
<path d="M18.2308 51.8046C17.9096 51.4374 17.3514 51.4002 16.9843 51.7214L16.3076 52.2895C16.1076 52.4574 15.9921 52.7051 15.9922 52.9663C15.9923 53.4541 16.3878 53.8495 16.8756 53.8495C17.0831 53.8493 17.2838 53.7762 17.4427 53.6428L18.1194 53.0748C18.129 53.0671 18.1384 53.0593 18.1476 53.0511C18.5148 52.7299 18.552 52.1718 18.2308 51.8046Z" fill="white" fill-opacity="0.1"/>
<path d="M21.1682 54.7446C20.7879 54.439 20.232 54.4995 19.9264 54.8798L19.3584 55.5564C19.2254 55.7152 19.1525 55.9157 19.1523 56.1228C19.152 56.6107 19.5472 57.0065 20.035 57.0068C20.296 57.0068 20.5438 56.8915 20.7116 56.6915L21.2796 56.0149C21.2878 56.0056 21.2956 55.9961 21.3034 55.9865C21.609 55.6063 21.5485 55.0503 21.1682 54.7446Z" fill="white" fill-opacity="0.1"/>
<path d="M28.3419 58.9113C27.8833 58.7447 27.3765 58.9814 27.2099 59.44L26.9087 60.2694C26.8735 60.3664 26.8554 60.4686 26.8555 60.5718C26.8556 61.0596 27.2512 61.455 27.739 61.4549C28.1101 61.4546 28.4415 61.2223 28.5685 60.8736L28.8706 60.0433C29.0372 59.5847 28.8005 59.0779 28.3419 58.9113Z" fill="white" fill-opacity="0.1"/>
<path d="M32.3585 59.9871C31.8779 59.9024 31.4198 60.2234 31.3351 60.7039L31.1814 61.574V61.5741C31.0971 62.0547 31.4182 62.5126 31.8987 62.5969C31.9494 62.6064 32.0008 62.6111 32.0524 62.6111C32.481 62.6106 32.8474 62.3027 32.9216 61.8806L33.0753 61.0105C33.16 60.5299 32.839 60.0718 32.3585 59.9871Z" fill="white" fill-opacity="0.1"/>
<path d="M41.8176 61.574L41.6639 60.7039C41.5792 60.2234 41.1211 59.9024 40.6405 59.9871C40.16 60.0718 39.839 60.5299 39.9237 61.0105L40.0774 61.8805C40.1516 62.3027 40.518 62.6106 40.9466 62.6111C40.9982 62.6111 41.0496 62.6064 41.1003 62.5969H41.1004C41.581 62.5125 41.902 62.0546 41.8176 61.574Z" fill="white" fill-opacity="0.1"/>
<path d="M46.0895 60.2694L45.7882 59.44C45.6216 58.9814 45.1148 58.7447 44.6562 58.9113C44.1977 59.0779 43.9609 59.5847 44.1276 60.0433L44.4297 60.8736C44.5566 61.2224 44.888 61.4546 45.2591 61.4549C45.3622 61.4549 45.4646 61.4369 45.5614 61.4016C46.0199 61.2348 46.2563 60.7279 46.0895 60.2694Z" fill="white" fill-opacity="0.1"/>
<path d="M53.6438 55.5562L53.0758 54.8796C53.0681 54.87 53.0602 54.8606 53.0521 54.8513C52.7309 54.4842 52.1727 54.447 51.8056 54.7682C51.4384 55.0894 51.4012 55.6475 51.7225 56.0147L52.2905 56.6913C52.4578 56.8919 52.7059 57.0075 52.9671 57.0067C53.1743 57.0065 53.3748 56.9336 53.5336 56.8006C53.9077 56.4874 53.957 55.9302 53.6438 55.5562Z" fill="white" fill-opacity="0.1"/>
<path d="M56.6924 52.2897L56.0158 51.7218C56.0065 51.7137 55.9971 51.7058 55.9875 51.698C55.6072 51.3924 55.0513 51.4529 54.7456 51.8332C54.44 52.2134 54.5005 52.7694 54.8808 53.075L55.5574 53.643C55.7163 53.7764 55.917 53.8495 56.1245 53.8497C56.3856 53.8497 56.6334 53.7342 56.8013 53.5343C57.1148 53.1605 57.066 52.6033 56.6924 52.2897Z" fill="white" fill-opacity="0.1"/>
<path d="M60.8711 44.4312L60.0408 44.1291C59.5822 43.9625 59.0754 44.1993 58.9088 44.6578C58.7422 45.1164 58.9789 45.6232 59.4375 45.7898L60.2669 46.091C60.3638 46.1265 60.4659 46.1447 60.569 46.1449C60.9409 46.1452 61.2732 45.9126 61.4001 45.5629C61.5665 45.1043 61.3297 44.5976 60.8711 44.4312Z" fill="white" fill-opacity="0.1"/>
<path d="M61.8796 40.0782L61.0096 39.9245C60.529 39.8398 60.0709 40.1608 59.9862 40.6413C59.9015 41.1219 60.2225 41.58 60.703 41.6647L61.5731 41.8184C61.6241 41.8271 61.6759 41.8315 61.7277 41.8316C62.1566 41.8314 62.5233 41.5231 62.5973 41.1007C62.6815 40.6201 62.3602 40.1623 61.8796 40.0782Z" fill="white" fill-opacity="0.1"/>
<path d="M62.597 31.8984C62.5123 31.4179 62.0542 31.0969 61.5737 31.1816L60.7036 31.3353C60.2808 31.4094 59.9725 31.7767 59.9727 32.2058C59.9729 32.6937 60.3685 33.089 60.8564 33.0887C60.908 33.0886 60.9593 33.0842 61.0101 33.0755L61.8802 32.9218C62.3607 32.8371 62.6817 32.379 62.597 31.8984Z" fill="white" fill-opacity="0.1"/>
<path d="M61.4116 27.4145C61.236 26.9594 60.7245 26.7329 60.2694 26.9087L59.4399 27.2099C59.0882 27.3363 58.8541 27.6706 58.8555 28.0443C58.8572 28.5321 59.2542 28.9262 59.742 28.9245C59.8448 28.9242 59.9467 28.906 60.0432 28.8706L60.8736 28.5685C60.8844 28.5648 60.8951 28.5608 60.9057 28.5568C61.3608 28.381 61.5873 27.8696 61.4116 27.4145Z" fill="white" fill-opacity="0.1"/>
<path d="M56.7965 19.4907C56.4908 19.1104 55.9349 19.0499 55.5546 19.3556L54.878 19.9236C54.6779 20.0914 54.5624 20.3392 54.5625 20.6003C54.5626 21.0881 54.9581 21.4835 55.4459 21.4835C55.6534 21.4833 55.8542 21.4102 56.013 21.2768L56.6897 20.7088C57.046 20.397 57.0931 19.8597 56.7965 19.4907Z" fill="white" fill-opacity="0.1"/>
<path d="M53.5369 16.2258C53.1698 15.9046 52.6117 15.9417 52.2904 16.3089L51.7224 16.9855C51.5888 17.1446 51.5156 17.3458 51.5156 17.5536C51.5157 18.0414 51.9112 18.4369 52.3991 18.4368C52.6603 18.4366 52.908 18.3209 53.0757 18.1206L53.6437 17.4439C53.9404 17.0749 53.8932 16.5375 53.5369 16.2258Z" fill="white" fill-opacity="0.1"/>
<path d="M45.5513 11.5765C45.0897 11.4185 44.5874 11.6646 44.4295 12.1261L44.1274 12.9565C44.0922 13.0534 44.0741 13.1557 44.0742 13.2588C44.0743 13.7466 44.47 14.142 44.9578 14.1419C45.3294 14.1419 45.6613 13.9092 45.7881 13.5598L46.0893 12.7303C46.0934 12.7197 46.0973 12.709 46.101 12.6982C46.2589 12.2367 46.0128 11.7344 45.5513 11.5765Z" fill="white" fill-opacity="0.1"/>
<path d="M41.1007 10.4022C40.6201 10.3176 40.162 10.6385 40.0773 11.1191L39.9236 11.9892V11.9893C39.8393 12.4698 40.1603 12.9277 40.6409 13.0121C40.6917 13.0208 40.743 13.0252 40.7946 13.0253C41.2229 13.025 41.5893 12.7175 41.6638 12.2957L41.8175 11.4256C41.9022 10.9451 41.5812 10.4869 41.1007 10.4022Z" fill="white" fill-opacity="0.1"/>
<path d="M26.2208 16.9335L24.4541 13.8736C24.2097 13.4567 23.6756 13.3136 23.2555 13.5524C22.8314 13.7936 22.6831 14.3329 22.9242 14.757L24.6909 17.8168C24.8488 18.0905 25.1408 18.2588 25.4567 18.2585C25.6115 18.2584 25.7635 18.2175 25.8975 18.1401C26.32 17.8962 26.4647 17.356 26.2208 16.9335Z" fill="white" fill-opacity="0.1"/>
<path d="M17.8136 24.6934L14.7537 22.9268C14.3336 22.6879 13.7995 22.831 13.555 23.248C13.3083 23.6689 13.4494 24.21 13.8704 24.4567L16.9302 26.2234C17.0645 26.3009 17.2169 26.3417 17.3719 26.3417C17.6875 26.3417 17.9791 26.1733 18.1369 25.9001C18.3808 25.4776 18.236 24.9373 17.8136 24.6934Z" fill="white" fill-opacity="0.1"/>
<path d="M18.144 47.0918C17.8972 46.671 17.356 46.5299 16.9351 46.7767L13.8753 48.5433C13.602 48.7011 13.4336 48.9927 13.4336 49.3083C13.4336 49.7961 13.829 50.1916 14.3169 50.1916C14.4721 50.192 14.6244 50.1511 14.7586 50.0733L17.8185 48.3066C17.8219 48.3046 17.8253 48.3026 17.8287 48.3006C18.2496 48.0539 18.3908 47.5127 18.144 47.0918Z" fill="white" fill-opacity="0.1"/>
<path d="M25.8982 54.852C25.4741 54.6108 24.9348 54.7591 24.6936 55.1832L22.927 58.2431C22.8496 58.3771 22.8088 58.5291 22.8086 58.6839C22.808 59.1717 23.2031 59.5676 23.691 59.5681C24.0069 59.5684 24.299 59.4 24.4569 59.1264L26.2236 56.0666C26.2255 56.0632 26.2274 56.0598 26.2294 56.0564C26.4706 55.6324 26.3222 55.0931 25.8982 54.852Z" fill="white" fill-opacity="0.1"/>
<path d="M50.0723 58.243L48.3056 55.1831C48.0611 54.7663 47.5272 54.6232 47.1071 54.862C46.683 55.1031 46.5346 55.6424 46.7757 56.0665L48.5423 59.1263C48.7002 59.3999 48.9923 59.5683 49.3082 59.568C49.4629 59.5679 49.6149 59.527 49.749 59.4496C50.1714 59.2057 50.3162 58.6654 50.0723 58.243Z" fill="white" fill-opacity="0.1"/>
<path d="M59.1259 48.5434L56.066 46.7767C55.6459 46.5379 55.1119 46.681 54.8676 47.0978C54.6208 47.5186 54.7619 48.0599 55.1827 48.3067L58.2426 50.0733C58.3767 50.1512 58.5291 50.192 58.6842 50.1917C58.9998 50.1917 59.2914 50.0233 59.4492 49.75C59.6931 49.3276 59.5484 48.7873 59.1259 48.5434Z" fill="white" fill-opacity="0.1"/>
<path d="M59.4483 23.2582C59.2071 22.8341 58.6678 22.6858 58.2437 22.927L55.1839 24.6936C54.9106 24.8514 54.7422 25.143 54.7422 25.4586C54.7422 25.9464 55.1376 26.3419 55.6255 26.3419C55.7805 26.3419 55.9329 26.3011 56.0672 26.2236L59.1271 24.4569C59.544 24.2124 59.6871 23.6784 59.4483 23.2582Z" fill="white" fill-opacity="0.1"/>
<path d="M49.754 13.5581C49.3332 13.3114 48.792 13.4525 48.5452 13.8733L46.7785 16.9331C46.7011 17.0672 46.6604 17.2191 46.6602 17.3739C46.6596 17.8617 47.0548 18.2577 47.5426 18.2581C47.8585 18.2585 48.1506 18.0901 48.3085 17.8165L50.0751 14.7566C50.314 14.3365 50.1709 13.8025 49.754 13.5581Z" fill="white" fill-opacity="0.1"/>
<path d="M16.1833 35.6167H10.8833C10.3955 35.6167 10 36.0122 10 36.5C10 36.9878 10.3955 37.3834 10.8833 37.3834H16.1833C16.6712 37.3834 17.0667 36.9878 17.0667 36.5C17.0667 36.0122 16.6712 35.6167 16.1833 35.6167Z" fill="white" fill-opacity="0.1"/>
<path d="M36.5005 55.9333C36.0127 55.9333 35.6172 56.3288 35.6172 56.8166V62.1166C35.6172 62.6045 36.0127 63 36.5005 63C36.9883 63 37.3839 62.6045 37.3839 62.1166V56.8166C37.3839 56.3288 36.9883 55.9333 36.5005 55.9333Z" fill="white" fill-opacity="0.1"/>
<path d="M62.1174 35.6167H55.9341C55.4463 35.6167 55.0508 36.0122 55.0508 36.5C55.0508 36.9878 55.4463 37.3834 55.9341 37.3834H62.1174C62.6053 37.3834 63.0008 36.9878 63.0008 36.5C63.0008 36.0122 62.6053 35.6167 62.1174 35.6167Z" fill="white" fill-opacity="0.1"/>
<path d="M49.0711 23.9753C48.7262 23.6305 48.167 23.6305 47.8221 23.9753L38.2953 33.502C37.7578 33.1944 37.1479 33.0362 36.5286 33.0436C35.9456 33.0572 35.3752 33.2156 34.8689 33.5047L30.3365 28.9723C29.9915 28.6259 29.4312 28.6247 29.0848 28.9697C28.7384 29.3146 28.7372 29.875 29.0821 30.2213L33.5783 34.7175C32.5393 36.3728 33.0389 38.5569 34.6942 39.5959C36.3494 40.635 38.5336 40.1353 39.5726 38.48C40.2946 37.3297 40.2946 35.8677 39.5726 34.7175L49.0711 25.2243C49.4159 24.8794 49.4159 24.3202 49.0711 23.9753ZM37.9026 37.8053C37.2378 38.5195 36.1199 38.5596 35.4057 37.8949C35.388 37.8784 35.3708 37.8616 35.3538 37.8445C34.6537 37.165 34.6369 36.0465 35.3164 35.3463C35.6423 35.0106 36.0881 34.8177 36.556 34.8103C37.0256 34.7968 37.4801 34.977 37.813 35.3085C38.5272 35.9732 38.5673 37.0911 37.9026 37.8053Z" fill="white" fill-opacity="0.1"/>
<path d="M30.9077 52.07C30.4477 52.07 30.0344 51.99 29.6677 51.83C29.3077 51.6633 29.0244 51.4367 28.8177 51.15C28.6111 50.8567 28.5044 50.52 28.4977 50.14H29.4677C29.5011 50.4667 29.6344 50.7433 29.8677 50.97C30.1077 51.19 30.4544 51.3 30.9077 51.3C31.3411 51.3 31.6811 51.1933 31.9277 50.98C32.1811 50.76 32.3077 50.48 32.3077 50.14C32.3077 49.8733 32.2344 49.6567 32.0877 49.49C31.9411 49.3233 31.7577 49.1967 31.5377 49.11C31.3177 49.0233 31.0211 48.93 30.6477 48.83C30.1877 48.71 29.8177 48.59 29.5377 48.47C29.2644 48.35 29.0277 48.1633 28.8277 47.91C28.6344 47.65 28.5377 47.3033 28.5377 46.87C28.5377 46.49 28.6344 46.1533 28.8277 45.86C29.0211 45.5667 29.2911 45.34 29.6377 45.18C29.9911 45.02 30.3944 44.94 30.8477 44.94C31.5011 44.94 32.0344 45.1033 32.4477 45.43C32.8677 45.7567 33.1044 46.19 33.1577 46.73H32.1577C32.1244 46.4633 31.9844 46.23 31.7377 46.03C31.4911 45.8233 31.1644 45.72 30.7577 45.72C30.3777 45.72 30.0677 45.82 29.8277 46.02C29.5877 46.2133 29.4677 46.4867 29.4677 46.84C29.4677 47.0933 29.5377 47.3 29.6777 47.46C29.8244 47.62 30.0011 47.7433 30.2077 47.83C30.4211 47.91 30.7177 48.0033 31.0977 48.11C31.5577 48.2367 31.9277 48.3633 32.2077 48.49C32.4877 48.61 32.7277 48.8 32.9277 49.06C33.1277 49.3133 33.2277 49.66 33.2277 50.1C33.2277 50.44 33.1377 50.76 32.9577 51.06C32.7777 51.36 32.5111 51.6033 32.1577 51.79C31.8044 51.9767 31.3877 52.07 30.9077 52.07ZM39.5669 49.05C39.5669 49.2233 39.5569 49.4067 39.5369 49.6H35.1569C35.1902 50.14 35.3735 50.5633 35.7069 50.87C36.0469 51.17 36.4569 51.32 36.9369 51.32C37.3302 51.32 37.6569 51.23 37.9169 51.05C38.1835 50.8633 38.3702 50.6167 38.4769 50.31H39.4569C39.3102 50.8367 39.0169 51.2667 38.5769 51.6C38.1369 51.9267 37.5902 52.09 36.9369 52.09C36.4169 52.09 35.9502 51.9733 35.5369 51.74C35.1302 51.5067 34.8102 51.1767 34.5769 50.75C34.3435 50.3167 34.2269 49.8167 34.2269 49.25C34.2269 48.6833 34.3402 48.1867 34.5669 47.76C34.7935 47.3333 35.1102 47.0067 35.5169 46.78C35.9302 46.5467 36.4035 46.43 36.9369 46.43C37.4569 46.43 37.9169 46.5433 38.3169 46.77C38.7169 46.9967 39.0235 47.31 39.2369 47.71C39.4569 48.1033 39.5669 48.55 39.5669 49.05ZM38.6269 48.86C38.6269 48.5133 38.5502 48.2167 38.3969 47.97C38.2435 47.7167 38.0335 47.5267 37.7669 47.4C37.5069 47.2667 37.2169 47.2 36.8969 47.2C36.4369 47.2 36.0435 47.3467 35.7169 47.64C35.3969 47.9333 35.2135 48.34 35.1669 48.86H38.6269ZM40.428 49.25C40.428 48.6833 40.5414 48.19 40.768 47.77C40.9947 47.3433 41.308 47.0133 41.708 46.78C42.1147 46.5467 42.578 46.43 43.098 46.43C43.7714 46.43 44.3247 46.5933 44.758 46.92C45.198 47.2467 45.488 47.7 45.628 48.28H44.648C44.5547 47.9467 44.3714 47.6833 44.098 47.49C43.8314 47.2967 43.498 47.2 43.098 47.2C42.578 47.2 42.158 47.38 41.838 47.74C41.518 48.0933 41.358 48.5967 41.358 49.25C41.358 49.91 41.518 50.42 41.838 50.78C42.158 51.14 42.578 51.32 43.098 51.32C43.498 51.32 43.8314 51.2267 44.098 51.04C44.3647 50.8533 44.548 50.5867 44.648 50.24H45.628C45.4814 50.8 45.188 51.25 44.748 51.59C44.308 51.9233 43.758 52.09 43.098 52.09C42.578 52.09 42.1147 51.9733 41.708 51.74C41.308 51.5067 40.9947 51.1767 40.768 50.75C40.5414 50.3233 40.428 49.8233 40.428 49.25Z" fill="white"/>
<path d="M33.0311 30.342C32.9377 29.95 32.7744 29.656 32.5411 29.46C32.3171 29.264 31.9904 29.166 31.5611 29.166C30.9171 29.166 30.4411 29.4273 30.1331 29.95C29.8344 30.4633 29.6804 31.3033 29.6711 32.47C29.8951 32.0967 30.2217 31.8073 30.6511 31.602C31.0804 31.3873 31.5471 31.28 32.0511 31.28C32.6577 31.28 33.1944 31.4107 33.6611 31.672C34.1277 31.9333 34.4917 32.316 34.7531 32.82C35.0144 33.3147 35.1451 33.912 35.1451 34.612C35.1451 35.2747 35.0097 35.8673 34.7391 36.39C34.4777 36.9033 34.0904 37.3047 33.5771 37.594C33.0637 37.8833 32.4524 38.028 31.7431 38.028C30.7724 38.028 30.0071 37.8133 29.4471 37.384C28.8964 36.9547 28.5091 36.3573 28.2851 35.592C28.0704 34.8173 27.9631 33.8653 27.9631 32.736C27.9631 31.028 28.2571 29.74 28.8451 28.872C29.4331 27.9947 30.3617 27.556 31.6311 27.556C32.6111 27.556 33.3717 27.822 33.9131 28.354C34.4544 28.886 34.7671 29.5487 34.8511 30.342H33.0311ZM31.6031 32.89C31.1084 32.89 30.6931 33.0347 30.3571 33.324C30.0211 33.6133 29.8531 34.0333 29.8531 34.584C29.8531 35.1347 30.0071 35.5687 30.3151 35.886C30.6324 36.2033 31.0757 36.362 31.6451 36.362C32.1491 36.362 32.5457 36.208 32.8351 35.9C33.1337 35.592 33.2831 35.1767 33.2831 34.654C33.2831 34.1127 33.1384 33.6833 32.8491 33.366C32.5691 33.0487 32.1537 32.89 31.6031 32.89ZM36.6941 32.764C36.6941 31.1493 36.9835 29.8847 37.5621 28.97C38.1501 28.0553 39.1208 27.598 40.4741 27.598C41.8275 27.598 42.7935 28.0553 43.3721 28.97C43.9601 29.8847 44.2541 31.1493 44.2541 32.764C44.2541 34.388 43.9601 35.662 43.3721 36.586C42.7935 37.51 41.8275 37.972 40.4741 37.972C39.1208 37.972 38.1501 37.51 37.5621 36.586C36.9835 35.662 36.6941 34.388 36.6941 32.764ZM42.3221 32.764C42.3221 32.0733 42.2755 31.4947 42.1821 31.028C42.0981 30.552 41.9208 30.1647 41.6501 29.866C41.3888 29.5673 40.9968 29.418 40.4741 29.418C39.9515 29.418 39.5548 29.5673 39.2841 29.866C39.0228 30.1647 38.8455 30.552 38.7521 31.028C38.6681 31.4947 38.6261 32.0733 38.6261 32.764C38.6261 33.4733 38.6681 34.0707 38.7521 34.556C38.8361 35.032 39.0135 35.4193 39.2841 35.718C39.5548 36.0073 39.9515 36.152 40.4741 36.152C40.9968 36.152 41.3935 36.0073 41.6641 35.718C41.9348 35.4193 42.1121 35.032 42.1961 34.556C42.2801 34.0707 42.3221 33.4733 42.3221 32.764Z" fill="white"/>
<defs>
<filter id="filter0_d_2913:266" x="0" y="0" width="221" height="73" filterUnits="userSpaceOnUse" color-interpolation-filters="sRGB">
<feFlood flood-opacity="0" result="BackgroundImageFix"/>
<feColorMatrix in="SourceAlpha" type="matrix" values="0 0 0 0 0 0 0 0 0 0 0 0 0 0 0 0 0 0 127 0" result="hardAlpha"/>
<feOffset/>
<feGaussianBlur stdDeviation="5"/>
<feComposite in2="hardAlpha" operator="out"/>
<feColorMatrix type="matrix" values="0 0 0 0 0 0 0 0 0 0 0 0 0 0 0 0 0 0 0.05 0"/>
<feBlend mode="normal" in2="BackgroundImageFix" result="effect1_dropShadow_2913:266"/>
<feBlend mode="normal" in="SourceGraphic" in2="effect1_dropShadow_2913:266" result="shape"/>
</filter>
<filter id="filter1_d_2913:266" x="0" y="0" width="73" height="73" filterUnits="userSpaceOnUse" color-interpolation-filters="sRGB">
<feFlood flood-opacity="0" result="BackgroundImageFix"/>
<feColorMatrix in="SourceAlpha" type="matrix" values="0 0 0 0 0 0 0 0 0 0 0 0 0 0 0 0 0 0 127 0" result="hardAlpha"/>
<feOffset/>
<feGaussianBlur stdDeviation="5"/>
<feComposite in2="hardAlpha" operator="out"/>
<feColorMatrix type="matrix" values="0 0 0 0 0 0 0 0 0 0 0 0 0 0 0 0 0 0 0.05 0"/>
<feBlend mode="normal" in2="BackgroundImageFix" result="effect1_dropShadow_2913:266"/>
<feBlend mode="normal" in="SourceGraphic" in2="effect1_dropShadow_2913:266" result="shape"/>
</filter>
</defs>
</svg>
