<svg width="53" height="53" viewBox="0 0 53 53" fill="none" xmlns="http://www.w3.org/2000/svg">
<path d="M26.5005 0C26.0127 0 25.6172 0.395512 25.6172 0.883333V6.18333C25.6172 6.67115 26.0127 7.06667 26.5005 7.06667C26.9883 7.06667 27.3839 6.67115 27.3839 6.18333V0.883333C27.3839 0.395512 26.9883 0 26.5005 0Z" fill="white" fill-opacity="0.1"/>
<path d="M23.0754 1.98915L22.9217 1.11906C22.837 0.638529 22.3789 0.317548 21.8984 0.402238C21.4178 0.486927 21.0968 0.945046 21.1815 1.42558L21.3352 2.29566C21.4098 2.71745 21.7761 3.02497 22.2044 3.0253C22.256 3.02519 22.3073 3.02077 22.3581 3.01205H22.3582C22.8388 2.92758 23.1599 2.46968 23.0754 1.98915Z" fill="white" fill-opacity="0.1"/>
<path d="M18.8691 2.95637L18.567 2.12604C18.5633 2.11522 18.5594 2.10451 18.5553 2.0938C18.3795 1.63866 17.8682 1.41219 17.413 1.58798C16.9579 1.76376 16.7314 2.2751 16.9072 2.73024L17.2084 3.55969C17.3352 3.90904 17.6671 4.1418 18.0388 4.1418C18.1419 4.1418 18.2443 4.12381 18.3411 4.08858C18.7995 3.92174 19.0359 3.41482 18.8691 2.95637Z" fill="white" fill-opacity="0.1"/>
<path d="M11.2763 6.98526L10.7083 6.30863C10.3965 5.95232 9.85917 5.90517 9.49016 6.20186C9.10989 6.50749 9.04938 7.06344 9.35501 7.44371L9.923 8.12035C10.0907 8.32064 10.3384 8.43636 10.5996 8.43658C10.8074 8.43658 11.0086 8.36337 11.1677 8.22977C11.5414 7.91608 11.59 7.35891 11.2763 6.98526Z" fill="white" fill-opacity="0.1"/>
<path d="M8.12118 9.92314L7.44455 9.35516C7.07553 9.05858 6.53825 9.10561 6.22643 9.46193C5.90512 9.82906 5.94233 10.3871 6.30946 10.7084L6.9861 11.2764C7.14499 11.4098 7.34572 11.4829 7.5532 11.4831C7.81433 11.4831 8.06211 11.3676 8.22994 11.1676C8.54363 10.7939 8.49483 10.2367 8.12118 9.92314Z" fill="white" fill-opacity="0.1"/>
<path d="M3.5586 17.21L2.72915 16.9088C2.71855 16.9047 2.70773 16.9007 2.6969 16.8971C2.23536 16.7391 1.73308 16.9853 1.57518 17.4469C1.41717 17.9084 1.6634 18.4107 2.12495 18.5686L2.95528 18.8707C3.05178 18.9061 3.1537 18.9243 3.2565 18.9246C3.63026 18.9259 3.96438 18.6919 4.09092 18.3401C4.25599 17.8811 4.01771 17.3751 3.5586 17.21Z" fill="white" fill-opacity="0.1"/>
<path d="M2.2976 21.3353L1.42752 21.1816C0.946988 21.0969 0.488869 21.4179 0.404179 21.8984C0.31949 22.379 0.640471 22.8371 1.121 22.9218L1.99109 23.0755C2.04188 23.0842 2.09322 23.0886 2.14479 23.0887C2.57398 23.089 2.94122 22.7806 3.01531 22.3578C3.09945 21.8772 2.77814 21.4195 2.2976 21.3353Z" fill="white" fill-opacity="0.1"/>
<path d="M3.0111 30.6413C2.92641 30.1608 2.46829 29.8398 1.98776 29.9245L1.11768 30.0782C0.695223 30.1522 0.38705 30.519 0.386719 30.9478C0.386498 31.4357 0.781679 31.8314 1.26961 31.8316C1.3214 31.8315 1.37318 31.8271 1.42419 31.8184L2.29428 31.6647C2.77481 31.58 3.09579 31.1219 3.0111 30.6413Z" fill="white" fill-opacity="0.1"/>
<path d="M4.0873 34.6578C3.92068 34.1993 3.41387 33.9625 2.95531 34.1291L2.12498 34.4312C1.7754 34.5581 1.54275 34.8904 1.54297 35.2624C1.54341 35.7502 1.93914 36.1454 2.42708 36.1449C2.53009 36.1447 2.63234 36.1265 2.72918 36.091L3.55863 35.7898C4.01719 35.6232 4.25392 35.1164 4.0873 34.6578Z" fill="white" fill-opacity="0.1"/>
<path d="M8.23077 41.8046C7.90957 41.4374 7.35142 41.4002 6.98428 41.7214L6.30765 42.2895C6.10757 42.4574 5.99208 42.7051 5.99219 42.9663C5.9923 43.4541 6.38781 43.8495 6.87563 43.8495C7.0831 43.8493 7.28384 43.7762 7.44273 43.6428L8.11936 43.0748C8.12897 43.0671 8.13835 43.0593 8.14763 43.0511C8.51476 42.7299 8.55197 42.1718 8.23077 41.8046Z" fill="white" fill-opacity="0.1"/>
<path d="M11.1682 44.7446C10.7879 44.439 10.232 44.4995 9.92636 44.8798L9.35838 45.5564C9.22544 45.7152 9.15245 45.9157 9.15234 46.1228C9.15201 46.6107 9.54719 47.0065 10.035 47.0068C10.296 47.0068 10.5438 46.8915 10.7116 46.6915L11.2796 46.0149C11.2878 46.0056 11.2956 45.9961 11.3034 45.9865C11.609 45.6063 11.5485 45.0503 11.1682 44.7446Z" fill="white" fill-opacity="0.1"/>
<path d="M18.3419 48.9113C17.8833 48.7447 17.3765 48.9814 17.2099 49.44L16.9087 50.2694C16.8735 50.3664 16.8554 50.4686 16.8555 50.5718C16.8556 51.0596 17.2512 51.455 17.739 51.4549C18.1101 51.4546 18.4415 51.2223 18.5685 50.8736L18.8706 50.0433C19.0372 49.5847 18.8005 49.0779 18.3419 48.9113Z" fill="white" fill-opacity="0.1"/>
<path d="M22.3585 49.9871C21.8779 49.9024 21.4198 50.2234 21.3351 50.7039L21.1814 51.574V51.5741C21.0971 52.0547 21.4182 52.5126 21.8987 52.5969C21.9494 52.6064 22.0008 52.6111 22.0524 52.6111C22.481 52.6106 22.8474 52.3027 22.9216 51.8806L23.0753 51.0105C23.16 50.5299 22.839 50.0718 22.3585 49.9871Z" fill="white" fill-opacity="0.1"/>
<path d="M31.8176 51.574L31.6639 50.7039C31.5792 50.2234 31.1211 49.9024 30.6405 49.9871C30.16 50.0718 29.839 50.5299 29.9237 51.0105L30.0774 51.8805C30.1516 52.3027 30.518 52.6106 30.9466 52.6111C30.9982 52.6111 31.0496 52.6064 31.1003 52.5969H31.1004C31.581 52.5125 31.902 52.0546 31.8176 51.574Z" fill="white" fill-opacity="0.1"/>
<path d="M36.0895 50.2694L35.7882 49.44C35.6216 48.9814 35.1148 48.7447 34.6562 48.9113C34.1977 49.0779 33.9609 49.5847 34.1276 50.0433L34.4297 50.8736C34.5566 51.2224 34.888 51.4546 35.2591 51.4549C35.3622 51.4549 35.4646 51.4369 35.5614 51.4016C36.0199 51.2348 36.2563 50.7279 36.0895 50.2694Z" fill="white" fill-opacity="0.1"/>
<path d="M43.6438 45.5562L43.0758 44.8796C43.0681 44.87 43.0602 44.8606 43.0521 44.8513C42.7309 44.4842 42.1727 44.447 41.8056 44.7682C41.4384 45.0894 41.4012 45.6475 41.7225 46.0147L42.2905 46.6913C42.4578 46.8919 42.7059 47.0075 42.9671 47.0067C43.1743 47.0065 43.3748 46.9336 43.5336 46.8006C43.9077 46.4874 43.957 45.9302 43.6438 45.5562Z" fill="white" fill-opacity="0.1"/>
<path d="M46.6924 42.2897L46.0158 41.7218C46.0065 41.7137 45.9971 41.7058 45.9875 41.698C45.6072 41.3924 45.0513 41.4529 44.7456 41.8332C44.44 42.2134 44.5005 42.7694 44.8808 43.075L45.5574 43.643C45.7163 43.7764 45.917 43.8495 46.1245 43.8497C46.3856 43.8497 46.6334 43.7342 46.8013 43.5343C47.1148 43.1605 47.066 42.6033 46.6924 42.2897Z" fill="white" fill-opacity="0.1"/>
<path d="M50.8711 34.4312L50.0408 34.1291C49.5822 33.9625 49.0754 34.1993 48.9088 34.6578C48.7422 35.1164 48.9789 35.6232 49.4375 35.7898L50.2669 36.091C50.3638 36.1265 50.4659 36.1447 50.569 36.1449C50.9409 36.1452 51.2732 35.9126 51.4001 35.5629C51.5665 35.1043 51.3297 34.5976 50.8711 34.4312Z" fill="white" fill-opacity="0.1"/>
<path d="M51.8796 30.0782L51.0096 29.9245C50.529 29.8398 50.0709 30.1608 49.9862 30.6413C49.9015 31.1219 50.2225 31.58 50.703 31.6647L51.5731 31.8184C51.6241 31.8271 51.6759 31.8315 51.7277 31.8316C52.1566 31.8314 52.5233 31.5231 52.5973 31.1007C52.6815 30.6201 52.3602 30.1623 51.8796 30.0782Z" fill="white" fill-opacity="0.1"/>
<path d="M52.597 21.8984C52.5123 21.4179 52.0542 21.0969 51.5737 21.1816L50.7036 21.3353C50.2808 21.4094 49.9725 21.7767 49.9727 22.2058C49.9729 22.6937 50.3685 23.089 50.8564 23.0887C50.908 23.0886 50.9593 23.0842 51.0101 23.0755L51.8802 22.9218C52.3607 22.8371 52.6817 22.379 52.597 21.8984Z" fill="white" fill-opacity="0.1"/>
<path d="M51.4116 17.4145C51.236 16.9594 50.7245 16.7329 50.2694 16.9087L49.4399 17.2099C49.0882 17.3363 48.8541 17.6706 48.8555 18.0443C48.8572 18.5321 49.2542 18.9262 49.742 18.9245C49.8448 18.9242 49.9467 18.906 50.0432 18.8706L50.8736 18.5685C50.8844 18.5648 50.8951 18.5608 50.9057 18.5568C51.3608 18.381 51.5873 17.8696 51.4116 17.4145Z" fill="white" fill-opacity="0.1"/>
<path d="M46.7965 9.49072C46.4908 9.11044 45.9349 9.04994 45.5546 9.35557L44.878 9.92355C44.6779 10.0914 44.5624 10.3392 44.5625 10.6003C44.5626 11.0881 44.9581 11.4835 45.4459 11.4835C45.6534 11.4833 45.8542 11.4102 46.013 11.2768L46.6897 10.7088C47.046 10.397 47.0931 9.85973 46.7965 9.49072Z" fill="white" fill-opacity="0.1"/>
<path d="M43.5369 6.22582C43.1698 5.90462 42.6117 5.94172 42.2904 6.30885L41.7224 6.98549C41.5888 7.1446 41.5156 7.34578 41.5156 7.55358C41.5157 8.0414 41.9112 8.43692 42.3991 8.43681C42.6603 8.43659 42.908 8.32087 43.0757 8.12057L43.6437 7.44394C43.9404 7.07493 43.8932 6.53753 43.5369 6.22582Z" fill="white" fill-opacity="0.1"/>
<path d="M35.5513 1.57649C35.0897 1.41848 34.5874 1.6646 34.4295 2.12614L34.1274 2.95648C34.0922 3.05342 34.0741 3.15567 34.0742 3.2588C34.0743 3.74662 34.47 4.14202 34.9578 4.14191C35.3294 4.14191 35.6613 3.90915 35.7881 3.55979L36.0893 2.73034C36.0934 2.71974 36.0973 2.70903 36.101 2.69821C36.2589 2.23667 36.0128 1.73439 35.5513 1.57649Z" fill="white" fill-opacity="0.1"/>
<path d="M31.1007 0.402245C30.6201 0.317556 30.162 0.638537 30.0773 1.11907L29.9236 1.98915V1.98926C29.8393 2.4698 30.1603 2.9277 30.6409 3.01205C30.6917 3.02078 30.743 3.02519 30.7946 3.0253C31.2229 3.02497 31.5893 2.71746 31.6638 2.29567L31.8175 1.42559C31.9022 0.945054 31.5812 0.486935 31.1007 0.402245Z" fill="white" fill-opacity="0.1"/>
<path d="M16.2208 6.93351L14.4541 3.87364C14.2097 3.45671 13.6756 3.31361 13.2555 3.55244C12.8314 3.79359 12.6831 4.33286 12.9242 4.75697L14.6909 7.81684C14.8488 8.09045 15.1408 8.25884 15.4567 8.25851C15.6115 8.2584 15.7635 8.21754 15.8975 8.14014C16.32 7.89623 16.4647 7.35596 16.2208 6.93351Z" fill="white" fill-opacity="0.1"/>
<path d="M7.81355 14.6934L4.75369 12.9268C4.33355 12.6879 3.79947 12.831 3.555 13.248C3.30833 13.6689 3.44944 14.21 3.87035 14.4567L6.93022 16.2234C7.06449 16.3009 7.21686 16.3417 7.37189 16.3417C7.68746 16.3417 7.97907 16.1733 8.13685 15.9001C8.38076 15.4776 8.23601 14.9373 7.81355 14.6934Z" fill="white" fill-opacity="0.1"/>
<path d="M8.14397 37.0918C7.89719 36.671 7.35604 36.5299 6.93513 36.7767L3.87526 38.5433C3.60198 38.7011 3.43359 38.9927 3.43359 39.3083C3.43359 39.7961 3.829 40.1916 4.31693 40.1916C4.47206 40.192 4.62444 40.1511 4.75859 40.0733L7.81846 38.3066C7.82188 38.3046 7.82531 38.3026 7.82873 38.3006C8.24964 38.0539 8.39075 37.5127 8.14397 37.0918Z" fill="white" fill-opacity="0.1"/>
<path d="M15.8982 44.852C15.4741 44.6108 14.9348 44.7591 14.6936 45.1832L12.927 48.2431C12.8496 48.3771 12.8088 48.5291 12.8086 48.6839C12.808 49.1717 13.2031 49.5676 13.691 49.5681C14.0069 49.5684 14.299 49.4 14.4569 49.1264L16.2236 46.0666C16.2255 46.0632 16.2274 46.0598 16.2294 46.0564C16.4706 45.6324 16.3222 45.0931 15.8982 44.852Z" fill="white" fill-opacity="0.1"/>
<path d="M40.0723 48.243L38.3056 45.1831C38.0611 44.7663 37.5272 44.6232 37.1071 44.862C36.683 45.1031 36.5346 45.6424 36.7757 46.0665L38.5423 49.1263C38.7002 49.3999 38.9923 49.5683 39.3082 49.568C39.4629 49.5679 39.6149 49.527 39.749 49.4496C40.1714 49.2057 40.3162 48.6654 40.0723 48.243Z" fill="white" fill-opacity="0.1"/>
<path d="M49.1259 38.5434L46.066 36.7767C45.6459 36.5379 45.1119 36.681 44.8676 37.0978C44.6208 37.5186 44.7619 38.0599 45.1827 38.3067L48.2426 40.0733C48.3767 40.1512 48.5291 40.192 48.6842 40.1917C48.9998 40.1917 49.2914 40.0233 49.4492 39.75C49.6931 39.3276 49.5484 38.7873 49.1259 38.5434Z" fill="white" fill-opacity="0.1"/>
<path d="M49.4483 13.2582C49.2071 12.8341 48.6678 12.6858 48.2437 12.927L45.1839 14.6936C44.9106 14.8514 44.7422 15.143 44.7422 15.4586C44.7422 15.9464 45.1376 16.3419 45.6255 16.3419C45.7805 16.3419 45.9329 16.3011 46.0672 16.2236L49.1271 14.4569C49.544 14.2124 49.6871 13.6784 49.4483 13.2582Z" fill="white" fill-opacity="0.1"/>
<path d="M39.754 3.55814C39.3332 3.31136 38.792 3.45248 38.5452 3.87327L36.7785 6.93314C36.7011 7.06719 36.6604 7.21912 36.6602 7.37392C36.6596 7.86174 37.0548 8.2577 37.5426 8.25814C37.8585 8.25847 38.1506 8.09009 38.3085 7.81647L40.0751 4.75661C40.314 4.33647 40.1709 3.8025 39.754 3.55814Z" fill="white" fill-opacity="0.1"/>
<path d="M6.18333 25.6167H0.883333C0.395512 25.6167 0 26.0122 0 26.5C0 26.9878 0.395512 27.3834 0.883333 27.3834H6.18333C6.67115 27.3834 7.06667 26.9878 7.06667 26.5C7.06667 26.0122 6.67115 25.6167 6.18333 25.6167Z" fill="white" fill-opacity="0.1"/>
<path d="M26.5005 45.9333C26.0127 45.9333 25.6172 46.3288 25.6172 46.8166V52.1166C25.6172 52.6045 26.0127 53 26.5005 53C26.9883 53 27.3839 52.6045 27.3839 52.1166V46.8166C27.3839 46.3288 26.9883 45.9333 26.5005 45.9333Z" fill="white" fill-opacity="0.1"/>
<path d="M52.1174 25.6167H45.9341C45.4463 25.6167 45.0508 26.0122 45.0508 26.5C45.0508 26.9878 45.4463 27.3834 45.9341 27.3834H52.1174C52.6053 27.3834 53.0008 26.9878 53.0008 26.5C53.0008 26.0122 52.6053 25.6167 52.1174 25.6167Z" fill="white" fill-opacity="0.1"/>
<path d="M39.0711 13.9753C38.7262 13.6305 38.167 13.6305 37.8221 13.9753L28.2953 23.502C27.7578 23.1944 27.1479 23.0362 26.5286 23.0436C25.9456 23.0572 25.3752 23.2156 24.8689 23.5047L20.3365 18.9723C19.9915 18.6259 19.4312 18.6247 19.0848 18.9697C18.7384 19.3146 18.7372 19.875 19.0821 20.2213L23.5783 24.7175C22.5393 26.3728 23.0389 28.5569 24.6942 29.5959C26.3494 30.635 28.5336 30.1353 29.5726 28.48C30.2946 27.3297 30.2946 25.8677 29.5726 24.7175L39.0711 15.2243C39.4159 14.8794 39.4159 14.3202 39.0711 13.9753ZM27.9026 27.8053C27.2378 28.5195 26.1199 28.5596 25.4057 27.8949C25.388 27.8784 25.3708 27.8616 25.3538 27.8445C24.6537 27.165 24.6369 26.0465 25.3164 25.3463C25.6423 25.0106 26.0881 24.8177 26.556 24.8103C27.0256 24.7968 27.4801 24.977 27.813 25.3085C28.5272 25.9732 28.5673 27.0911 27.9026 27.8053Z" fill="white" fill-opacity="0.1"/>
</svg>
