<svg width="172" height="172" viewBox="0 0 172 172" fill="none" xmlns="http://www.w3.org/2000/svg">
<path d="M43 0C37.0875 0 32.25 4.8375 32.25 10.75V161.25C32.25 167.163 37.0875 172 43 172H150.5C156.412 172 161.25 167.163 161.25 161.25V43L118.25 0H43Z" fill="#E2E5E7"/>
<path d="M129 43H161.25L118.25 0V32.25C118.25 38.1625 123.088 43 129 43Z" fill="#B0B7BD"/>
<path d="M161.25 75.25L129 43H161.25V75.25Z" fill="#CAD1D8"/>
<path d="M140 140.125C140 143.081 137.581 145.5 134.625 145.5H16.375C13.4188 145.5 11 143.081 11 140.125V86.375C11 83.4188 13.4188 81 16.375 81H134.625C137.581 81 140 83.4188 140 86.375V140.125Z" fill="#28BC7B"/>
<path d="M59.48 126L53.44 116.6L47.96 126H41.64L50.44 111.92L41.52 98.08H47.96L54 107.44L59.44 98.08H65.76L57 112.12L65.92 126H59.48ZM75.2315 121.56H84.4315V126H69.6315V98.08H75.2315V121.56ZM97.0806 126.28C95.1339 126.28 93.3739 125.947 91.8006 125.28C90.2539 124.613 89.0272 123.653 88.1206 122.4C87.2139 121.147 86.7472 119.667 86.7206 117.96H92.7206C92.8006 119.107 93.2006 120.013 93.9206 120.68C94.6672 121.347 95.6806 121.68 96.9606 121.68C98.2672 121.68 99.2939 121.373 100.041 120.76C100.787 120.12 101.161 119.293 101.161 118.28C101.161 117.453 100.907 116.773 100.401 116.24C99.8939 115.707 99.2539 115.293 98.4806 115C97.7339 114.68 96.6939 114.333 95.3606 113.96C93.5472 113.427 92.0672 112.907 90.9206 112.4C89.8006 111.867 88.8272 111.08 88.0006 110.04C87.2006 108.973 86.8006 107.56 86.8006 105.8C86.8006 104.147 87.2139 102.707 88.0406 101.48C88.8672 100.253 90.0272 99.32 91.5206 98.68C93.0139 98.0133 94.7206 97.68 96.6406 97.68C99.5206 97.68 101.854 98.3867 103.641 99.8C105.454 101.187 106.454 103.133 106.641 105.64H100.481C100.427 104.68 100.014 103.893 99.2406 103.28C98.4939 102.64 97.4939 102.32 96.2406 102.32C95.1472 102.32 94.2672 102.6 93.6006 103.16C92.9606 103.72 92.6406 104.533 92.6406 105.6C92.6406 106.347 92.8806 106.973 93.3606 107.48C93.8672 107.96 94.4806 108.36 95.2006 108.68C95.9472 108.973 96.9872 109.32 98.3206 109.72C100.134 110.253 101.614 110.787 102.761 111.32C103.907 111.853 104.894 112.653 105.721 113.72C106.547 114.787 106.961 116.187 106.961 117.92C106.961 119.413 106.574 120.8 105.801 122.08C105.027 123.36 103.894 124.387 102.401 125.16C100.907 125.907 99.1339 126.28 97.0806 126.28Z" fill="white"/>
<path d="M134.375 145.125H32.25V150.5H134.375C137.331 150.5 139.75 148.081 139.75 145.125V139.75C139.75 142.706 137.331 145.125 134.375 145.125Z" fill="#CAD1D8"/>
</svg>
